<svg width="138" height="36" viewBox="0 0 138 36" fill="none" xmlns="http://www.w3.org/2000/svg">
<path d="M7.44 26.384C6.224 26.384 5.152 26.144 4.224 25.664C3.296 25.168 2.552 24.48 1.992 23.6C1.448 22.704 1.128 21.672 1.032 20.504L3.456 20.336C3.568 21.152 3.8 21.848 4.152 22.424C4.504 22.984 4.96 23.416 5.52 23.72C6.08 24.008 6.736 24.152 7.488 24.152C8.224 24.152 8.848 24.056 9.36 23.864C9.872 23.672 10.256 23.392 10.512 23.024C10.784 22.64 10.92 22.192 10.92 21.68C10.92 21.136 10.792 20.68 10.536 20.312C10.296 19.928 9.856 19.576 9.216 19.256C8.576 18.92 7.648 18.592 6.432 18.272C5.216 17.936 4.248 17.568 3.528 17.168C2.808 16.752 2.272 16.256 1.92 15.68C1.584 15.088 1.416 14.352 1.416 13.472C1.416 12.512 1.648 11.664 2.112 10.928C2.576 10.176 3.24 9.6 4.104 9.2C4.968 8.784 5.984 8.576 7.152 8.576C8.288 8.576 9.272 8.808 10.104 9.272C10.952 9.736 11.624 10.384 12.12 11.216C12.632 12.032 12.952 12.976 13.08 14.048L10.656 14.192C10.56 13.52 10.368 12.928 10.08 12.416C9.792 11.904 9.4 11.512 8.904 11.24C8.408 10.952 7.808 10.808 7.104 10.808C6.112 10.808 5.32 11.048 4.728 11.528C4.152 11.992 3.864 12.608 3.864 13.376C3.864 13.888 3.976 14.312 4.2 14.648C4.424 14.968 4.808 15.256 5.352 15.512C5.896 15.752 6.688 16.016 7.728 16.304C9.12 16.672 10.216 17.096 11.016 17.576C11.832 18.056 12.424 18.632 12.792 19.304C13.176 19.96 13.368 20.776 13.368 21.752C13.368 22.648 13.12 23.448 12.624 24.152C12.128 24.856 11.432 25.408 10.536 25.808C9.64 26.192 8.608 26.384 7.44 26.384ZM21.2786 13.232H23.5826V26H21.2786V13.232ZM16.2146 24.008H27.9266V26H16.2146V24.008ZM16.4546 13.232H23.4386V15.224H16.4546V13.232ZM21.1106 8.912H23.5106V11.36H21.1106V8.912ZM31.0373 13.232H33.1253L33.2213 16.568L32.9573 16.376C33.1653 15.24 33.6373 14.384 34.3733 13.808C35.1253 13.232 36.0133 12.944 37.0373 12.944C38.4133 12.944 39.4613 13.392 40.1813 14.288C40.9013 15.168 41.2613 16.328 41.2613 17.768V26H38.9573V18.416C38.9573 17.248 38.7573 16.376 38.3573 15.8C37.9733 15.224 37.3413 14.936 36.4613 14.936C35.5333 14.936 34.7813 15.248 34.2053 15.872C33.6293 16.48 33.3413 17.344 33.3413 18.464V26H31.0373V13.232ZM50.6599 26.288C49.4919 26.288 48.4599 26.016 47.5639 25.472C46.6679 24.928 45.9719 24.152 45.4759 23.144C44.9959 22.12 44.7559 20.944 44.7559 19.616C44.7559 18.288 44.9959 17.12 45.4759 16.112C45.9719 15.088 46.6679 14.304 47.5639 13.76C48.4599 13.216 49.4919 12.944 50.6599 12.944C51.6359 12.944 52.4999 13.128 53.2519 13.496C54.0199 13.848 54.6439 14.368 55.1239 15.056C55.6199 15.744 55.9559 16.568 56.1319 17.528L53.7319 17.696C53.5399 16.864 53.1719 16.224 52.6279 15.776C52.0999 15.312 51.4439 15.08 50.6599 15.08C49.5719 15.08 48.7159 15.488 48.0919 16.304C47.4679 17.104 47.1559 18.208 47.1559 19.616C47.1559 21.024 47.4679 22.136 48.0919 22.952C48.7159 23.752 49.5719 24.152 50.6599 24.152C51.4759 24.152 52.1559 23.912 52.6999 23.432C53.2439 22.936 53.6119 22.24 53.8039 21.344L56.2039 21.488C55.9479 22.96 55.3239 24.128 54.3319 24.992C53.3399 25.856 52.1159 26.288 50.6599 26.288ZM64.9305 26.288C63.7465 26.288 62.7065 26.016 61.8105 25.472C60.9305 24.928 60.2505 24.152 59.7705 23.144C59.2905 22.136 59.0505 20.96 59.0505 19.616C59.0505 18.272 59.2905 17.096 59.7705 16.088C60.2505 15.08 60.9225 14.304 61.7865 13.76C62.6665 13.216 63.6905 12.944 64.8585 12.944C65.9625 12.944 66.9465 13.208 67.8105 13.736C68.6905 14.248 69.3705 15.016 69.8505 16.04C70.3465 17.048 70.5945 18.256 70.5945 19.664V20.264H61.4505C61.5305 21.544 61.8745 22.512 62.4825 23.168C63.0905 23.824 63.9065 24.152 64.9305 24.152C65.6985 24.152 66.3305 23.976 66.8265 23.624C67.3385 23.256 67.7065 22.752 67.9305 22.112L70.3785 22.304C70.0105 23.504 69.3465 24.472 68.3865 25.208C67.4265 25.928 66.2745 26.288 64.9305 26.288ZM68.0985 18.416C67.9865 17.328 67.6425 16.504 67.0665 15.944C66.5065 15.368 65.7705 15.08 64.8585 15.08C63.9465 15.08 63.1945 15.368 62.6025 15.944C62.0105 16.504 61.6345 17.328 61.4745 18.416H68.0985ZM77.3051 13.232H79.0571L79.2731 16.448L79.0811 16.424C79.2251 15.352 79.5611 14.552 80.0891 14.024C80.6331 13.496 81.3691 13.232 82.2971 13.232H85.0091V15.296H82.4171C81.7931 15.296 81.2651 15.416 80.8331 15.656C80.4171 15.88 80.1051 16.224 79.8971 16.688C79.6891 17.136 79.5851 17.696 79.5851 18.368V26H77.3051V13.232ZM74.0651 24.008H83.5691V26H74.0651V24.008ZM74.0651 13.232H78.5291V15.224H74.0651V13.232ZM93.7118 26.288C92.5278 26.288 91.4878 26.016 90.5918 25.472C89.7118 24.928 89.0318 24.152 88.5518 23.144C88.0718 22.136 87.8318 20.96 87.8318 19.616C87.8318 18.272 88.0718 17.096 88.5518 16.088C89.0318 15.08 89.7038 14.304 90.5678 13.76C91.4478 13.216 92.4718 12.944 93.6398 12.944C94.7438 12.944 95.7278 13.208 96.5918 13.736C97.4718 14.248 98.1518 15.016 98.6318 16.04C99.1278 17.048 99.3758 18.256 99.3758 19.664V20.264H90.2318C90.3118 21.544 90.6558 22.512 91.2638 23.168C91.8718 23.824 92.6878 24.152 93.7118 24.152C94.4798 24.152 95.1118 23.976 95.6078 23.624C96.1198 23.256 96.4878 22.752 96.7118 22.112L99.1598 22.304C98.7918 23.504 98.1278 24.472 97.1678 25.208C96.2078 25.928 95.0558 26.288 93.7118 26.288ZM96.8798 18.416C96.7678 17.328 96.4238 16.504 95.8478 15.944C95.2878 15.368 94.5518 15.08 93.6398 15.08C92.7278 15.08 91.9758 15.368 91.3838 15.944C90.7918 16.504 90.4158 17.328 90.2558 18.416H96.8798ZM107.598 12.536C107.598 12.04 107.454 11.656 107.166 11.384C106.894 11.096 106.51 10.952 106.014 10.952H103.038V8.96H106.134C107.382 8.96 108.318 9.28 108.942 9.92C109.582 10.544 109.902 11.472 109.902 12.704V26H107.598V12.536ZM102.558 24.008H114.27V26H102.558V24.008ZM118.245 27.608H119.805C120.237 27.608 120.557 27.536 120.765 27.392C120.989 27.264 121.165 27.048 121.293 26.744L121.725 25.616H120.981L116.325 13.232H118.821L122.493 23.456L125.925 13.232H128.421L123.333 27.44C123.077 28.192 122.685 28.736 122.157 29.072C121.645 29.424 120.941 29.6 120.045 29.6H118.245V27.608ZM131.724 26H130.38V22.928H133.452V25.664L131.916 29.744H130.572L131.724 26Z" fill="#2C2C2C"/>
</svg>
