<svg width="446" height="84" viewBox="0 0 446 84" fill="none" xmlns="http://www.w3.org/2000/svg">
<g filter="url(#filter0_d_1694_10421)">
<path d="M4.77638 17.3156C4.77637 12.8973 8.35809 9.31555 12.7764 9.31555H22.6658C23.8051 9.31555 24.8903 8.82976 25.6492 7.98006L29.734 3.4064C31.3451 1.6025 34.1762 1.63001 35.7519 3.46488L39.5793 7.92158C40.3392 8.80644 41.4474 9.31555 42.6138 9.31555H433.224C437.642 9.31555 441.224 12.8973 441.224 17.3155L441.224 62C441.224 66.4183 437.642 70 433.224 70H12.7764C8.35815 70 4.77643 66.4183 4.77643 62L4.77638 17.3156Z" fill="#F8F0FF"/>
</g>
<path d="M43.5488 31.0215V33.6602H48.6074V34.5488H37.4922V33.6602H42.4961V31.0215H43.5488ZM38.3535 30.8574V24.8828H39.3926V26.9473H41.4434V24.8828H42.4824V30.8574H38.3535ZM39.3926 29.9688H41.4434V27.8223H39.3926V29.9688ZM43.5762 30.8574V24.8828H44.6152V26.9473H46.6797V24.8828H47.7324V30.8574H43.5762ZM44.6152 29.9688H46.6797V27.8223H44.6152V29.9688ZM50.9043 25.1152V28.2461H52.3809V25.1152H53.2969V33.1543H49.9883V25.1152H50.9043ZM50.9043 32.2656H52.3809V29.0938H50.9043V32.2656ZM54.2676 33.1543V25.1152H55.1836V28.2461H56.6328V25.1152H57.5215V33.1543H54.2676ZM55.1836 32.2656H56.6328V29.0938H55.1836V32.2656ZM58.8613 36.1074V23.9531H59.8867V36.1074H58.8613ZM71.0977 23.9531V28.9023H73.0664V29.8047H71.0977V36.1074H70.0312V23.9531H71.0977ZM61.7734 32.9492C64.9111 31.3906 66.6201 29.0459 66.8662 26.168H62.334V25.2656H67.9531C67.9463 28.7041 66.333 31.8418 62.375 33.7969L61.7734 32.9492ZM88.4199 31.0215V31.9102H83.3477V36.1074H82.2949V31.9102H77.291V31.0215H88.4199ZM78.7266 29.3672V24.6367H86.9707V29.3672H78.7266ZM79.7793 28.5195H85.9043V25.5117H79.7793V28.5195ZM93.752 27.6855C93.7588 29.75 95.2559 31.8486 97.0469 32.6211L96.4453 33.4688C95.0234 32.8262 93.7998 31.4248 93.2324 29.7432C92.665 31.5273 91.4346 33.0723 90.0469 33.7695L89.4043 32.9219C91.1475 32.0879 92.665 29.791 92.6719 27.6855V26.0996H89.8008V25.2109H96.6504V26.0996H93.752V27.6855ZM98.3457 36.1074V23.9531H99.4258V36.1074H98.3457ZM111.881 23.9531V36.1074H110.828V29.75H109.146V35.5059H108.121V24.2812H109.146V28.8613H110.828V23.9531H111.881ZM101.518 32.7441C104.341 31.165 105.503 28.9434 105.688 26.4277H101.982V25.5391H106.74C106.727 28.6289 105.64 31.5479 102.146 33.4961L101.518 32.7441ZM126.523 23.9531V28.7656H128.561V29.668H126.523V36.1348H125.457V23.9531H126.523ZM117.65 33.0859V25.1426H123.324V26.0312H118.717V32.1836C120.918 32.1768 122.47 32.0811 124.281 31.7461L124.418 32.6758C122.511 33.0176 120.918 33.0859 118.607 33.0859H117.65ZM139.252 23.9531V36.1348H138.186V23.9531H139.252ZM129.9 25.9766V25.0879H135.561V29.4082H131.021V32.2793C133.038 32.2861 134.836 32.1904 137.01 31.8418L137.119 32.7441C134.884 33.0928 133.038 33.1816 130.939 33.1816H129.928V28.5332H134.48V25.9766H129.9ZM154.906 23.9668V32.9492H153.826V28.6152H151.133V27.7129H153.826V23.9668H154.906ZM145.021 30.666C147.817 29.7432 149.766 27.9932 150.012 25.7988H145.637V24.8965H151.188C151.174 28.0205 148.938 30.3994 145.486 31.5273L145.021 30.666ZM147.168 35.8477V32.0332H148.262V34.9453H155.221V35.8477H147.168ZM167.02 23.9531V36.1348H165.939V28.8613H162.152V27.9727H165.939V23.9531H167.02ZM157.6 33.1816V25.3203H158.68V32.2793C160.539 32.2588 162.187 32.1631 164.012 31.7871L164.148 32.6758C162.207 33.0791 160.498 33.1816 158.529 33.1816H157.6ZM179.447 23.9531V36.1074H178.408V23.9531H179.447ZM169.18 29.2031C169.187 26.6191 170.212 24.9854 171.791 24.9785C173.268 24.9854 174.266 26.4072 174.402 28.6973H175.975V24.2129H177V35.4922H175.975V29.5859H174.409C174.307 31.9512 173.288 33.4346 171.791 33.4277C170.212 33.4346 169.187 31.7871 169.18 29.2031ZM170.191 29.2031C170.178 31.1719 170.807 32.416 171.791 32.4023C172.782 32.416 173.411 31.1719 173.404 29.2031C173.411 27.2275 172.782 25.9902 171.791 25.9902C170.807 25.9902 170.178 27.2275 170.191 29.2031ZM185.408 27.2207C185.401 29.4219 186.816 31.6367 188.58 32.4434L187.938 33.3184C186.557 32.6074 185.415 31.1582 184.875 29.4287C184.335 31.2471 183.193 32.8057 181.812 33.5371L181.115 32.6758C182.899 31.8008 184.308 29.4629 184.314 27.2207V25.0059H185.408V27.2207ZM187.254 28.9844V28.1094H190.139V23.9531H191.205V36.1348H190.139V28.9844H187.254ZM207.064 23.9531V31.6504H206.039V28.1641H204.412V31.2129H203.4V24.1992H204.412V27.2754H206.039V23.9531H207.064ZM196.674 26.2773V25.416H199.271V24.0488H200.338V25.416H202.908V26.2773H196.674ZM197.207 29.0117C197.2 27.7402 198.273 26.9268 199.805 26.9336C201.343 26.9268 202.409 27.7402 202.416 29.0117C202.409 30.2627 201.343 31.0762 199.805 31.0762C198.273 31.0762 197.2 30.2627 197.207 29.0117ZM198.164 29.0117C198.164 29.7568 198.834 30.2695 199.805 30.2695C200.775 30.2695 201.445 29.7568 201.445 29.0117C201.445 28.2393 200.775 27.7266 199.805 27.7266C198.834 27.7266 198.164 28.2393 198.164 29.0117ZM198.971 33.9883C198.957 32.6211 200.481 31.8555 203.045 31.8555C205.602 31.8555 207.126 32.6211 207.133 33.9883C207.126 35.3213 205.602 36.0801 203.045 36.0801C200.481 36.0801 198.957 35.3213 198.971 33.9883ZM200.037 33.9883C200.023 34.7744 201.151 35.2529 203.045 35.2461C204.932 35.2529 206.053 34.7744 206.066 33.9883C206.053 33.1543 204.932 32.6895 203.045 32.7031C201.151 32.6895 200.023 33.1543 200.037 33.9883ZM219.916 30.2422V31.1309H208.842V30.2422H213.846V28.7793H210.318V24.2402H211.385V25.6484H217.4V24.2402H218.467V28.7793H214.912V30.2422H219.916ZM210.072 33.1953V32.334H218.549V36.1074H217.469V33.1953H210.072ZM211.385 27.918H217.4V26.4688H211.385V27.918ZM230.348 23.9531V28.9707H232.385V29.8594H230.348V36.1074H229.281V23.9531H230.348ZM220.873 26.7969V25.9082H224.004V24.1035H225.07V25.9082H228.105V26.7969H220.873ZM221.57 30.5977C221.563 28.957 222.821 27.8086 224.551 27.8086C226.267 27.8086 227.518 28.957 227.531 30.5977C227.518 32.2451 226.267 33.3867 224.551 33.3867C222.821 33.3867 221.563 32.2451 221.57 30.5977ZM222.596 30.5977C222.589 31.7051 223.416 32.4844 224.551 32.4707C225.672 32.4844 226.492 31.7051 226.506 30.5977C226.492 29.4971 225.672 28.7041 224.551 28.7109C223.416 28.7041 222.589 29.4971 222.596 30.5977ZM243.445 23.9531V36.1074H242.42V23.9531H243.445ZM233.055 32.7031C235.693 31.1377 237.02 28.9434 237.225 26.4004H233.574V25.5117H238.291C238.291 26.708 238.1 27.8633 237.683 28.9434H239.863V24.2812H240.889V35.4922H239.863V29.8184H237.286C236.555 31.2334 235.379 32.4844 233.684 33.4824L233.055 32.7031ZM258.812 23.9668V36.1211H257.732V23.9668H258.812ZM248.572 30.6934C251.054 30.6865 254.164 30.6865 256.994 30.3652L257.049 31.1582C255.825 31.3428 254.574 31.4453 253.357 31.5068V35.7109H252.277V31.5547C251.013 31.5957 249.803 31.5957 248.709 31.5957L248.572 30.6934ZM249.379 29.2031V24.8418H252.51V25.7441H250.432V28.3281C251.102 28.3076 251.812 28.2598 252.646 28.082L252.729 28.9434C251.635 29.1895 250.773 29.21 249.898 29.2031H249.379ZM253.166 29.2031V24.8418H256.379V25.7441H254.219V28.3281H256.461V29.2031H253.166ZM264.021 24.8965C265.676 24.9033 266.872 26.3252 267.036 28.6016H269.764V23.9531H270.83V36.1348H269.764V29.4902H267.05C266.934 31.876 265.717 33.3662 264.021 33.3594C262.224 33.3662 260.966 31.7256 260.973 29.1348C260.966 26.5508 262.224 24.9033 264.021 24.8965ZM261.998 29.1348C262.005 31.1104 262.825 32.4092 264.021 32.4023C265.211 32.4092 266.045 31.1104 266.045 29.1348C266.045 27.1592 265.211 25.8604 264.021 25.8535C262.825 25.8604 262.005 27.1592 261.998 29.1348ZM282.656 26.8516V27.7402H278.924V29.0664H283.969V29.9688H272.84V29.0664H277.871V27.7402H274.357V24.1582H275.41V26.8516H282.656ZM274.234 31.8145V30.9668H282.533V33.7559H275.342V35.082H282.971V35.9434H274.262V32.9629H281.48V31.8145H274.234ZM294.701 25.1836V26.4004C294.688 27.8906 294.688 29.5586 294.25 32.0059L293.156 31.8828C293.614 29.5586 293.614 27.8564 293.621 26.4004V26.0723H286.129V25.1836H294.701ZM284.953 34.3848V33.4961H289.301V29.1484H290.354V33.4961H296.027V34.3848H284.953ZM304.682 32.1152C304.675 33.1885 305.256 34.3301 306.411 34.9863C307.573 34.2686 308.188 33.0518 308.182 32.1152V31.4453H309.234V32.1152C309.228 33.3662 310.15 34.6104 311.709 35.1504L311.176 35.9434C309.959 35.5127 309.111 34.665 308.688 33.6465C308.312 34.6309 307.566 35.5674 306.445 36.0391C305.263 35.5879 304.511 34.6992 304.148 33.6807C303.711 34.6582 302.877 35.5059 301.715 35.9434L301.168 35.1504C302.706 34.5762 303.629 33.2773 303.643 32.1152V31.4453H304.682V32.1152ZM300.854 27.5215C300.847 25.8262 302.193 24.6709 304.039 24.6777C305.885 24.6709 307.218 25.8262 307.225 27.5215C307.218 29.1895 305.885 30.3379 304.039 30.3379C302.193 30.3379 300.847 29.1895 300.854 27.5215ZM301.906 27.5215C301.893 28.6494 302.788 29.4424 304.039 29.4492C305.276 29.4424 306.172 28.6494 306.172 27.5215C306.172 26.3867 305.276 25.5801 304.039 25.5938C302.788 25.5801 301.893 26.3867 301.906 27.5215ZM309.535 30.9121V23.9668H310.602V30.9121H309.535ZM318.203 24.1719C320.903 24.1719 322.489 24.917 322.496 26.2637C322.489 27.6445 320.903 28.3896 318.203 28.3965C315.489 28.3896 313.896 27.6445 313.896 26.2637C313.896 24.917 315.489 24.1719 318.203 24.1719ZM312.666 30.0918V29.2168H323.74V30.0918H312.666ZM314.006 31.9648V31.1445H322.318V33.8652H315.1V35.123H322.688V35.9707H314.033V33.0723H321.266V31.9648H314.006ZM315.018 26.2637C315.004 27.1113 316.187 27.5762 318.203 27.5762C320.22 27.5762 321.396 27.1113 321.402 26.2637C321.396 25.4639 320.22 24.9854 318.203 24.9785C316.187 24.9854 315.004 25.4639 315.018 26.2637ZM338.342 23.9531V36.1074H337.275V29.7363H334.377V28.8477H337.275V23.9531H338.342ZM328.293 32.9355C331.581 31.3428 333.105 28.998 333.324 26.1543H328.826V25.2793H334.404C334.397 28.7246 332.941 31.7803 328.881 33.7969L328.293 32.9355ZM350.797 23.9531V36.1074H349.758V23.9531H350.797ZM340.529 29.2031C340.536 26.6191 341.562 24.9854 343.141 24.9785C344.18 24.9854 344.979 25.6895 345.417 26.9062H347.352V24.2129H348.377V35.4922H347.352V31.5H345.417C344.986 32.7236 344.18 33.4346 343.141 33.4277C341.562 33.4346 340.536 31.7871 340.529 29.2031ZM341.527 29.2031C341.521 31.1719 342.143 32.416 343.141 32.4023C344.132 32.416 344.768 31.1719 344.768 29.2031C344.768 27.2275 344.132 25.9902 343.141 25.9902C342.143 25.9902 341.521 27.2275 341.527 29.2031ZM345.643 27.7949C345.725 28.2256 345.766 28.6973 345.766 29.2031C345.766 29.7021 345.725 30.1738 345.649 30.5977H347.352V27.7949H345.643ZM363.607 33.6465V34.5488H352.479V33.6465H355.24V30.3721C354.201 29.832 353.572 28.957 353.572 27.8496C353.572 25.9697 355.418 24.7324 358.016 24.7188C360.613 24.7324 362.459 25.9697 362.459 27.8496C362.459 28.9365 361.851 29.7979 360.846 30.3379V33.6465H363.607ZM354.611 27.8496C354.604 29.21 356.02 30.1191 358.016 30.1191C359.991 30.1191 361.42 29.21 361.42 27.8496C361.42 26.4893 359.991 25.5938 358.016 25.6074C356.02 25.5938 354.604 26.4893 354.611 27.8496ZM356.293 33.6465H359.766V30.7549C359.239 30.8916 358.651 30.9668 358.016 30.9668C357.394 30.9668 356.812 30.8984 356.293 30.7617V33.6465ZM365.863 35.082C365.385 35.0752 364.975 34.6787 364.988 34.1934C364.975 33.7148 365.385 33.3184 365.863 33.3184C366.349 33.3184 366.745 33.7148 366.738 34.1934C366.745 34.6787 366.349 35.0752 365.863 35.082ZM46.9941 45.9531V48.7969H48.8262V49.6855H46.9941V52.4609H45.9277V45.9531H46.9941ZM37.5332 51.8184C40.623 51.1348 42.3594 49.6035 42.5371 47.6895H38.0527V46.8145H43.7266C43.7197 49.8564 41.5664 51.873 37.9844 52.6934L37.5332 51.8184ZM39.2969 57.9434V53.0078H47.0488V53.8281H40.377V55.0312H46.9121V55.8516H40.377V57.1094H47.3359V57.9434H39.2969ZM60.666 52.3652V53.2402H49.5918V52.3652H60.666ZM50.8223 48.7969C50.8223 47.2725 52.4902 46.377 55.1289 46.3906C57.7402 46.377 59.415 47.2725 59.4219 48.7969C59.415 50.3076 57.7402 51.2168 55.1289 51.2168C52.4902 51.2168 50.8223 50.3076 50.8223 48.7969ZM51.0273 57.8477V54.3066H52.1074V56.9453H59.4355V57.8477H51.0273ZM51.9297 48.7969C51.9229 49.7607 53.167 50.3418 55.1289 50.3418C57.0771 50.3418 58.3213 49.7607 58.3281 48.7969C58.3213 47.8467 57.0771 47.252 55.1289 47.252C53.167 47.252 51.9229 47.8467 51.9297 48.7969ZM75.2812 45.9668V53.2676H74.2012V51.627H70.9746V50.7383H74.2012V49.0977H71.0977C70.2979 51.0527 68.4248 52.4678 65.8203 53.2402L65.3691 52.3926C68.3018 51.5244 70.1406 49.877 70.3525 47.7715H65.9844V46.8691H71.5215C71.5215 47.3477 71.4668 47.8057 71.3643 48.2363H74.2012V45.9668H75.2812ZM67.2422 55.7148C67.2354 54.2656 68.8145 53.3906 71.3027 53.3906C73.7637 53.3906 75.3496 54.2656 75.3496 55.7148C75.3496 57.1709 73.7637 58.0527 71.3027 58.0527C68.8145 58.0527 67.2354 57.1709 67.2422 55.7148ZM68.2949 55.7148C68.3018 56.6309 69.4707 57.1846 71.3027 57.1777C73.1074 57.1846 74.2764 56.6309 74.2832 55.7148C74.2764 54.7988 73.1074 54.2451 71.3027 54.252C69.4707 54.2451 68.3018 54.7988 68.2949 55.7148ZM87.3809 45.9531V53.3223H86.3008V50.5469H84.2363V49.6582H86.3008V45.9531H87.3809ZM77.3184 48.1133V47.2383H80.3398V45.8438H81.3926V47.2383H84.4141V48.1133H77.3184ZM78.043 50.9023C78.043 49.6309 79.2119 48.7422 80.8594 48.7422C82.5137 48.7422 83.6758 49.6309 83.6895 50.9023C83.6758 52.2148 82.5137 53.0762 80.8594 53.0762C79.2119 53.0762 78.043 52.2148 78.043 50.9023ZM79.0684 50.9023C79.0684 51.709 79.7998 52.2422 80.8594 52.2559C81.9189 52.2422 82.6504 51.709 82.6504 50.9023C82.6504 50.123 81.9189 49.5762 80.8594 49.5762C79.7998 49.5762 79.0684 50.123 79.0684 50.9023ZM79.4375 57.9434V53.9785H87.3809V57.9434H79.4375ZM80.5039 57.0684H86.3281V54.8398H80.5039V57.0684ZM94.9414 46.1719C97.6416 46.1719 99.2275 46.917 99.2344 48.2637C99.2275 49.6445 97.6416 50.3896 94.9414 50.3965C92.2275 50.3896 90.6348 49.6445 90.6348 48.2637C90.6348 46.917 92.2275 46.1719 94.9414 46.1719ZM89.4043 52.0918V51.2168H100.479V52.0918H89.4043ZM90.7441 53.9648V53.1445H99.0566V55.8652H91.8379V57.123H99.4258V57.9707H90.7715V55.0723H98.0039V53.9648H90.7441ZM91.7559 48.2637C91.7422 49.1113 92.9248 49.5762 94.9414 49.5762C96.958 49.5762 98.1338 49.1113 98.1406 48.2637C98.1338 47.4639 96.958 46.9854 94.9414 46.9785C92.9248 46.9854 91.7422 47.4639 91.7559 48.2637ZM114.52 45.9668V49.9727H116.352V50.875H114.52V55.0723H113.453V45.9668H114.52ZM105.045 48.332V47.457H108.135V45.9668H109.201V47.457H112.291V48.332H105.045ZM105.742 51.2715C105.735 49.8906 106.911 49.002 108.668 49.002C110.404 49.002 111.58 49.8906 111.594 51.2715C111.58 52.6387 110.404 53.5205 108.668 53.5137C106.911 53.5205 105.735 52.6387 105.742 51.2715ZM106.768 51.2715C106.761 52.126 107.52 52.6797 108.668 52.666C109.803 52.6797 110.568 52.126 110.582 51.2715C110.568 50.4033 109.803 49.8428 108.668 49.8496C107.52 49.8428 106.761 50.4033 106.768 51.2715ZM106.918 57.8477V54.3477H107.971V56.9453H115.08V57.8477H106.918ZM124.705 49.2207C124.705 51.3604 126.12 53.5684 127.85 54.416L127.193 55.2773C125.854 54.5801 124.732 53.1377 124.192 51.4492C123.652 53.2402 122.504 54.7783 121.137 55.5098L120.453 54.6484C122.23 53.7734 123.639 51.4424 123.652 49.2207V47.0059H124.705V49.2207ZM128.971 58.1074V45.9531H130.037V50.8887H132.074V51.8184H130.037V58.1074H128.971ZM142.232 45.9668V49.084H144.078V50H142.232V53.2129H141.166V45.9668H142.232ZM133.25 47.5117V46.623H138.76V49.9453H134.33V51.668C136.49 51.6748 138.056 51.6064 139.949 51.2988L140.059 52.1602C138.11 52.502 136.483 52.5703 134.221 52.5703H133.277V49.1113H137.707V47.5117H133.25ZM134.535 57.9434V53.8145H142.232V57.9434H134.535ZM135.588 57.0684H141.193V54.6484H135.588V57.0684ZM150.367 46.7461C152.903 46.7529 154.811 48.0791 154.811 50.082C154.811 52.1055 152.903 53.4316 150.367 53.418C147.831 53.4316 145.924 52.1055 145.924 50.082C145.924 48.0791 147.831 46.7529 150.367 46.7461ZM144.83 56.4941V55.5918H155.959V56.4941H144.83ZM146.949 50.082C146.936 51.5586 148.405 52.543 150.367 52.543C152.315 52.543 153.771 51.5586 153.771 50.082C153.771 48.626 152.315 47.6143 150.367 47.6211C148.405 47.6143 146.936 48.626 146.949 50.082ZM168.059 55.7012V56.6035H156.93V55.7012H161.934V53.4043H158.324V49.6582H165.598V47.7441H158.297V46.8555H166.65V50.5332H159.391V52.5156H166.938V53.4043H162.986V55.7012H168.059ZM173.309 49.2207C173.302 51.4219 174.717 53.6367 176.48 54.4434L175.838 55.3184C174.457 54.6074 173.315 53.1582 172.775 51.4287C172.235 53.2471 171.094 54.8057 169.713 55.5371L169.016 54.6758C170.8 53.8008 172.208 51.4629 172.215 49.2207V47.0059H173.309V49.2207ZM175.154 50.9844V50.1094H178.039V45.9531H179.105V58.1348H178.039V50.9844H175.154ZM194.158 45.9531V49.125H195.977V50.0273H194.158V53.2129H193.078V45.9531H194.158ZM185.203 52.2148V46.8828H190.604V47.7715H186.256V51.3398C188.717 51.3262 190.132 51.251 191.766 50.916L191.875 51.8047C190.173 52.1465 188.717 52.2148 186.146 52.2148H185.203ZM186.215 55.7559C186.222 54.2998 187.767 53.4521 190.248 53.4453C192.729 53.4521 194.254 54.2998 194.254 55.7559C194.254 57.2324 192.729 58.0801 190.248 58.0801C187.767 58.0801 186.222 57.2324 186.215 55.7559ZM187.268 55.7559C187.274 56.6582 188.416 57.2119 190.248 57.2188C192.066 57.2119 193.222 56.6582 193.215 55.7559C193.222 54.8604 192.066 54.3203 190.248 54.334C188.416 54.3203 187.274 54.8604 187.268 55.7559ZM206.777 45.9668V54.8809H205.711V45.9668H206.777ZM196.865 52.2832C198.704 51.5654 199.955 49.7881 199.955 47.8672V46.6504H201.049V47.8672C201.035 49.7197 202.3 51.3809 204.111 52.0371L203.551 52.8984C202.143 52.3584 201.049 51.2646 200.509 49.8633C199.982 51.3535 198.875 52.5498 197.453 53.1172L196.865 52.2832ZM198.93 57.8477V54.0605H199.996V56.9453H207.16V57.8477H198.93ZM212.82 46.8418C214.728 46.8486 216.081 48.0107 216.088 49.6992C216.081 51.3945 214.728 52.5498 212.82 52.5566C210.899 52.5498 209.532 51.3945 209.539 49.6992C209.532 48.0107 210.899 46.8486 212.82 46.8418ZM208.91 54.5391C211.152 54.5459 214.249 54.5254 216.936 54.1289L217.018 54.9219C214.235 55.4414 211.248 55.4551 209.061 55.4551L208.91 54.5391ZM210.592 49.6992C210.585 50.834 211.521 51.6133 212.82 51.6133C214.105 51.6133 215.042 50.834 215.035 49.6992C215.042 48.5713 214.105 47.7852 212.82 47.7852C211.521 47.7852 210.585 48.5713 210.592 49.6992ZM217.742 58.1348V45.9531H218.809V58.1348H217.742ZM230.553 46.5137C230.546 48.0381 232.733 49.2344 234.928 49.4941L234.545 50.3145C232.631 50.0547 230.758 49.1797 229.992 47.8604C229.22 49.1797 227.347 50.0547 225.439 50.3145L225.07 49.4941C227.251 49.2344 229.445 48.0381 229.445 46.5137V46.0488H230.553V46.5137ZM224.455 51.9688V51.0664H235.529V51.9688H224.455ZM225.795 53.9238V53.0898H234.107V55.8652H226.889V57.123H234.477V57.9707H225.822V55.0723H233.055V53.9238H225.795ZM247.629 51.9961V52.8711H236.555V51.9961H247.629ZM237.594 47.293V46.4043H246.576V47.293H244.703V49.8906H246.535V50.7656H237.635V49.8906H239.467V47.293H237.594ZM237.908 57.9434V54.1426H246.275V57.9434H237.908ZM238.975 57.0684H245.223V54.9766H238.975V57.0684ZM240.533 49.8906H243.637V47.293H240.533V49.8906ZM254.191 46.1719C256.892 46.1719 258.478 46.917 258.484 48.2637C258.478 49.6445 256.892 50.3896 254.191 50.3965C251.478 50.3896 249.885 49.6445 249.885 48.2637C249.885 46.917 251.478 46.1719 254.191 46.1719ZM248.654 52.0918V51.2168H259.729V52.0918H248.654ZM249.994 53.9648V53.1445H258.307V55.8652H251.088V57.123H258.676V57.9707H250.021V55.0723H257.254V53.9648H249.994ZM251.006 48.2637C250.992 49.1113 252.175 49.5762 254.191 49.5762C256.208 49.5762 257.384 49.1113 257.391 48.2637C257.384 47.4639 256.208 46.9854 254.191 46.9785C252.175 46.9854 250.992 47.4639 251.006 48.2637ZM274.289 45.9531V58.1348H273.209V45.9531H274.289ZM264.719 51.1348C264.726 48.5508 266.011 46.9033 267.822 46.8965C269.627 46.9033 270.933 48.5508 270.926 51.1348C270.933 53.7256 269.627 55.3662 267.822 55.3594C266.011 55.3662 264.726 53.7256 264.719 51.1348ZM265.758 51.1348C265.758 53.1104 266.605 54.4092 267.822 54.4023C269.046 54.4092 269.887 53.1104 269.887 51.1348C269.887 49.1592 269.046 47.8604 267.822 47.8535C266.605 47.8604 265.758 49.1592 265.758 51.1348ZM282.438 48.0586V48.9336H276.34V48.0586H278.869V46.3223H279.936V48.0586H282.438ZM276.777 52.5156C276.777 50.9023 277.878 49.7607 279.389 49.7539C280.92 49.7607 282.014 50.9023 282.027 52.5156C282.014 54.1494 280.92 55.2979 279.389 55.3047C277.878 55.2979 276.777 54.1494 276.777 52.5156ZM277.734 52.5156C277.734 53.5957 278.425 54.3682 279.389 54.3613C280.359 54.3682 281.07 53.5957 281.07 52.5156C281.07 51.4492 280.359 50.6699 279.389 50.6562C278.425 50.6699 277.734 51.4492 277.734 52.5156ZM283.066 57.5059V46.2539H284.078V51.0801H285.691V45.9531H286.717V58.1074H285.691V51.9688H284.078V57.5059H283.066ZM297.969 45.9531V49.0703H299.801V49.9863H297.969V53.0215H296.902V45.9531H297.969ZM288.494 48.0996V47.2109H291.584V45.8438H292.65V47.2109H295.74V48.0996H288.494ZM289.191 50.793C289.185 49.4941 290.354 48.667 292.117 48.6602C293.86 48.667 295.029 49.4941 295.043 50.793C295.029 52.0918 293.86 52.9326 292.117 52.9258C290.354 52.9326 289.185 52.0918 289.191 50.793ZM290.217 50.793C290.21 51.5859 290.969 52.1055 292.117 52.1055C293.252 52.1055 294.018 51.5859 294.031 50.793C294.018 50.0068 293.252 49.4805 292.117 49.4941C290.969 49.4805 290.21 50.0068 290.217 50.793ZM290.285 57.9434V53.5547H291.352V54.8535H296.902V53.5547H297.969V57.9434H290.285ZM291.352 57.082H296.902V55.7012H291.352V57.082ZM310.588 45.9531V58.1074H309.521V45.9531H310.588ZM301.359 54.9766V47.1562H302.412V54.0469C304.271 54.0332 306.186 53.8896 308.223 53.459L308.373 54.375C306.213 54.8262 304.292 54.9766 302.344 54.9766H301.359ZM322.072 45.9531V50.7656H324.109V51.668H322.072V58.1348H321.006V45.9531H322.072ZM313.199 55.0859V47.1426H318.873V48.0312H314.266V54.1836C316.467 54.1768 318.019 54.0811 319.83 53.7461L319.967 54.6758C318.06 55.0176 316.467 55.0859 314.156 55.0859H313.199ZM326.051 57.082C325.572 57.0752 325.162 56.6787 325.176 56.1934C325.162 55.7148 325.572 55.3184 326.051 55.3184C326.536 55.3184 326.933 55.7148 326.926 56.1934C326.933 56.6787 326.536 57.0752 326.051 57.082ZM341.309 45.9531V48.7969H343.141V49.6855H341.309V52.4609H340.242V45.9531H341.309ZM331.848 51.8184C334.938 51.1348 336.674 49.6035 336.852 47.6895H332.367V46.8145H338.041C338.034 49.8564 335.881 51.873 332.299 52.6934L331.848 51.8184ZM333.611 57.9434V53.0078H341.363V53.8281H334.691V55.0312H341.227V55.8516H334.691V57.1094H341.65V57.9434H333.611ZM353.928 45.9531V58.1348H352.848V45.9531H353.928ZM344.357 51.1348C344.364 48.5508 345.649 46.9033 347.461 46.8965C349.266 46.9033 350.571 48.5508 350.564 51.1348C350.571 53.7256 349.266 55.3662 347.461 55.3594C345.649 55.3662 344.364 53.7256 344.357 51.1348ZM345.396 51.1348C345.396 53.1104 346.244 54.4092 347.461 54.4023C348.685 54.4092 349.525 53.1104 349.525 51.1348C349.525 49.1592 348.685 47.8604 347.461 47.8535C346.244 47.8604 345.396 49.1592 345.396 51.1348ZM369.555 45.9531V53.3223H368.488V45.9531H369.555ZM359.697 48.1406V47.2656H362.883V45.8574H363.963V47.2656H367.148V48.1406H359.697ZM360.449 50.9023C360.436 49.583 361.625 48.7422 363.43 48.7422C365.228 48.7422 366.403 49.583 366.41 50.9023C366.403 52.2354 365.228 53.0762 363.43 53.0762C361.625 53.0762 360.436 52.2354 360.449 50.9023ZM361.475 50.9023C361.461 51.7295 362.24 52.2422 363.43 52.2559C364.605 52.2422 365.378 51.7295 365.385 50.9023C365.378 50.0957 364.605 49.5625 363.43 49.5625C362.24 49.5625 361.461 50.0957 361.475 50.9023ZM361.652 57.9434V53.9785H369.555V57.9434H361.652ZM362.705 57.0684H368.502V54.8398H362.705V57.0684ZM381.996 45.9531V58.1074H380.943V51.8184H379.193V57.4785H378.182V46.2266H379.193V50.9023H380.943V45.9531H381.996ZM372.234 54.9629V47.4434H373.301V54.0059C374.504 53.999 375.803 53.9102 377.279 53.6094L377.416 54.5664C375.721 54.874 374.326 54.9629 372.986 54.9629H372.234ZM385.455 46.9648V48.8242H389.406V46.9648H390.473V52.4336H387.971V54.6211C389.092 54.5732 390.22 54.4844 391.266 54.3477L391.334 55.1543C388.757 55.5713 385.886 55.6055 383.746 55.6191L383.568 54.7031C384.56 54.6963 385.701 54.6895 386.891 54.6621V52.4336H384.389V46.9648H385.455ZM385.455 51.5586H389.406V49.6582H385.455V51.5586ZM392.045 58.1074V45.9531H393.111V51.0664H395.094V51.9688H393.111V58.1074H392.045ZM406.947 55.6465V56.5488H395.818V55.6465H398.58V52.3721C397.541 51.832 396.912 50.957 396.912 49.8496C396.912 47.9697 398.758 46.7324 401.355 46.7188C403.953 46.7324 405.799 47.9697 405.799 49.8496C405.799 50.9365 405.19 51.7979 404.186 52.3379V55.6465H406.947ZM397.951 49.8496C397.944 51.21 399.359 52.1191 401.355 52.1191C403.331 52.1191 404.76 51.21 404.76 49.8496C404.76 48.4893 403.331 47.5938 401.355 47.6074C399.359 47.5938 397.944 48.4893 397.951 49.8496ZM399.633 55.6465H403.105V52.7549C402.579 52.8916 401.991 52.9668 401.355 52.9668C400.733 52.9668 400.152 52.8984 399.633 52.7617V55.6465ZM409.887 47.1016L409.791 54.2109H408.643L408.547 47.1016H409.887ZM408.342 56.1934C408.328 55.7148 408.738 55.3184 409.217 55.3184C409.702 55.3184 410.099 55.7148 410.092 56.1934C410.099 56.6787 409.702 57.0752 409.217 57.082C408.738 57.0752 408.328 56.6787 408.342 56.1934Z" fill="#2C2C2C"/>
<defs>
<filter id="filter0_d_1694_10421" x="0.24598" y="2.0708" width="445.508" height="81.5204" filterUnits="userSpaceOnUse" color-interpolation-filters="sRGB">
<feFlood flood-opacity="0" result="BackgroundImageFix"/>
<feColorMatrix in="SourceAlpha" type="matrix" values="0 0 0 0 0 0 0 0 0 0 0 0 0 0 0 0 0 0 127 0" result="hardAlpha"/>
<feMorphology radius="6.79558" operator="erode" in="SourceAlpha" result="effect1_dropShadow_1694_10421"/>
<feOffset dy="9.06077"/>
<feGaussianBlur stdDeviation="5.66298"/>
<feComposite in2="hardAlpha" operator="out"/>
<feColorMatrix type="matrix" values="0 0 0 0 0 0 0 0 0 0 0 0 0 0 0 0 0 0 0.1 0"/>
<feBlend mode="normal" in2="BackgroundImageFix" result="effect1_dropShadow_1694_10421"/>
<feBlend mode="normal" in="SourceGraphic" in2="effect1_dropShadow_1694_10421" result="shape"/>
</filter>
</defs>
</svg>
