<svg width="376" height="84" viewBox="0 0 376 84" fill="none" xmlns="http://www.w3.org/2000/svg">
<g filter="url(#filter0_d_1694_10418)">
<path d="M4.62305 17.338C4.62305 12.9197 8.20477 9.33798 12.623 9.33798L337.887 9.33809C339.027 9.33809 340.114 8.85088 340.873 7.99902L344.954 3.41829C346.566 1.60958 349.403 1.63714 350.979 3.47682L354.803 7.94049C355.563 8.82753 356.672 9.33809 357.84 9.33809H363.377C367.795 9.33809 371.377 12.9198 371.377 17.3381V62.0001C371.377 66.4184 367.795 70.0001 363.377 70.0001L12.623 70C8.20476 70 4.62305 66.4183 4.62305 62V17.338Z" fill="#F8F0FF"/>
</g>
<path d="M29.5664 26.2207C29.5664 28.3604 30.9814 30.5684 32.7109 31.416L32.0547 32.2773C30.7148 31.5801 29.5938 30.1377 29.0537 28.4492C28.5137 30.2402 27.3652 31.7783 25.998 32.5098L25.3145 31.6484C27.0918 30.7734 28.5 28.4424 28.5137 26.2207V24.0059H29.5664V26.2207ZM33.832 35.1074V22.9531H34.8984V27.8887H36.9355V28.8184H34.8984V35.1074H33.832ZM41.9668 25.5645C41.9736 27.2051 43.2656 28.6816 45.084 29.2559L44.5371 30.1172C43.1221 29.6318 42.001 28.6338 41.4473 27.3555C40.9209 28.7363 39.7793 29.8301 38.3301 30.3633L37.7695 29.502C39.5947 28.8662 40.8799 27.2871 40.8867 25.5645V24.8535H38.043V23.9785H44.7695V24.8535H41.9668V25.5645ZM39.7793 34.8477V31.0332H40.8457V33.9453H48.0098V34.8477H39.7793ZM46.5605 31.8809V22.9668H47.627V31.8809H46.5605ZM55.2285 23.1719C57.9287 23.1719 59.5146 23.917 59.5215 25.2637C59.5146 26.6445 57.9287 27.3896 55.2285 27.3965C52.5146 27.3896 50.9219 26.6445 50.9219 25.2637C50.9219 23.917 52.5146 23.1719 55.2285 23.1719ZM49.6914 29.0918V28.2168H60.7656V29.0918H49.6914ZM51.0312 30.9648V30.1445H59.3438V32.8652H52.125V34.123H59.7129V34.9707H51.0586V32.0723H58.291V30.9648H51.0312ZM52.043 25.2637C52.0293 26.1113 53.2119 26.5762 55.2285 26.5762C57.2451 26.5762 58.4209 26.1113 58.4277 25.2637C58.4209 24.4639 57.2451 23.9854 55.2285 23.9785C53.2119 23.9854 52.0293 24.4639 52.043 25.2637ZM76.4336 32.6602V33.5488H65.3047V32.6602H70.3086V30.0352H66.6172V23.8145H67.6973V26.0156H74.0137V23.8145H75.0664V30.0352H71.3613V32.6602H76.4336ZM67.6973 29.1602H74.0137V26.8906H67.6973V29.1602ZM87.4258 22.9531V35.1074H86.3594V22.9531H87.4258ZM78.1973 31.9766V24.1562H79.25V31.0469C81.1094 31.0332 83.0234 30.8896 85.0605 30.459L85.2109 31.375C83.0508 31.8262 81.1299 31.9766 79.1816 31.9766H78.1973ZM91.5 33.084L90.4336 36.8027H89.4219L90.1738 33.084H91.5ZM106.676 22.9531V30.1582H105.596V26.9316H102.752V29.2695H97.1738V23.8828H102.752V26.043H105.596V22.9531H106.676ZM98.2402 28.3945H101.699V24.7578H98.2402V28.3945ZM98.5684 32.8105C98.5615 31.3477 100.113 30.5068 102.643 30.5137C105.165 30.5068 106.717 31.3477 106.717 32.8105C106.717 34.2598 105.165 35.0801 102.643 35.0801C100.113 35.0801 98.5615 34.2598 98.5684 32.8105ZM99.6348 32.8105C99.6279 33.6992 100.776 34.2324 102.643 34.2324C104.502 34.2324 105.65 33.6992 105.65 32.8105C105.65 31.9082 104.502 31.3682 102.643 31.3613C100.776 31.3682 99.6279 31.9082 99.6348 32.8105ZM118.721 22.9531V35.1348H117.641V22.9531H118.721ZM109.15 28.1348C109.157 25.5508 110.442 23.9033 112.254 23.8965C114.059 23.9033 115.364 25.5508 115.357 28.1348C115.364 30.7256 114.059 32.3662 112.254 32.3594C110.442 32.3662 109.157 30.7256 109.15 28.1348ZM110.189 28.1348C110.189 30.1104 111.037 31.4092 112.254 31.4023C113.478 31.4092 114.318 30.1104 114.318 28.1348C114.318 26.1592 113.478 24.8604 112.254 24.8535C111.037 24.8604 110.189 26.1592 110.189 28.1348ZM124.463 23.7461C126.329 23.7598 127.696 24.9082 127.703 26.6035C127.696 28.1279 126.589 29.208 125.01 29.4131V31.4775C126.145 31.4297 127.286 31.3477 128.346 31.2109L128.414 32.0176C125.837 32.4551 122.966 32.4824 120.826 32.4688L120.648 31.5664C121.626 31.5596 122.754 31.5527 123.93 31.5186V29.4131C122.316 29.2217 121.216 28.1348 121.223 26.6035C121.216 24.9082 122.562 23.7598 124.463 23.7461ZM122.275 26.6035C122.262 27.7451 123.185 28.5381 124.463 28.5312C125.721 28.5381 126.637 27.7451 126.65 26.6035C126.637 25.4619 125.721 24.6826 124.463 24.6758C123.185 24.6826 122.262 25.4619 122.275 26.6035ZM129.125 35.1074V22.9531H130.191V27.9707H132.174V28.9004H130.191V35.1074H129.125ZM136.877 23.8418C138.784 23.8486 140.138 25.0107 140.145 26.6992C140.138 28.3945 138.784 29.5498 136.877 29.5566C134.956 29.5498 133.589 28.3945 133.596 26.6992C133.589 25.0107 134.956 23.8486 136.877 23.8418ZM132.967 31.5391C135.209 31.5459 138.306 31.5254 140.992 31.1289L141.074 31.9219C138.292 32.4414 135.305 32.4551 133.117 32.4551L132.967 31.5391ZM134.648 26.6992C134.642 27.834 135.578 28.6133 136.877 28.6133C138.162 28.6133 139.099 27.834 139.092 26.6992C139.099 25.5713 138.162 24.7852 136.877 24.7852C135.578 24.7852 134.642 25.5713 134.648 26.6992ZM141.799 35.1348V22.9531H142.865V35.1348H141.799ZM154.623 24.1836V32.0176H149.018V24.1836H154.623ZM150.057 31.1426H153.557V25.0449H150.057V31.1426ZM156.852 35.1074V22.9531H157.918V27.8066H159.955V28.7363H157.918V35.1074H156.852ZM164.959 26.6855C164.966 28.75 166.463 30.8486 168.254 31.6211L167.652 32.4688C166.23 31.8262 165.007 30.4248 164.439 28.7432C163.872 30.5273 162.642 32.0723 161.254 32.7695L160.611 31.9219C162.354 31.0879 163.872 28.791 163.879 26.6855V25.0996H161.008V24.2109H167.857V25.0996H164.959V26.6855ZM169.553 35.1074V22.9531H170.633V35.1074H169.553ZM178.85 23.8691V29.2422H173.23V23.8691H178.85ZM174.256 31.6758V30.8145H182.213V35.1348H181.146V31.6758H174.256ZM174.283 28.3672H177.811V24.7305H174.283V28.3672ZM181.146 30.1582V22.9531H182.213V26.125H184.045V27.0273H182.213V30.1582H181.146ZM198.359 22.9668V31.8535H197.293V22.9668H198.359ZM188.611 26.7949C188.604 25.0449 189.979 23.8213 191.797 23.8145C193.615 23.8213 194.976 25.0449 194.982 26.7949C194.976 28.5654 193.615 29.7959 191.797 29.7891C189.979 29.7959 188.604 28.5654 188.611 26.7949ZM189.664 26.7949C189.65 28.0049 190.566 28.8457 191.797 28.8457C193.007 28.8457 193.93 28.0049 193.93 26.7949C193.93 25.6055 193.007 24.7578 191.797 24.7578C190.566 24.7578 189.65 25.6055 189.664 26.7949ZM190.512 34.8477V30.9512H191.578V33.9453H198.742V34.8477H190.512ZM204.498 26.2207C204.498 28.3604 205.913 30.5684 207.643 31.416L206.986 32.2773C205.646 31.5801 204.525 30.1377 203.985 28.4492C203.445 30.2402 202.297 31.7783 200.93 32.5098L200.246 31.6484C202.023 30.7734 203.432 28.4424 203.445 26.2207V24.0059H204.498V26.2207ZM208.764 35.1074V22.9531H209.83V27.8887H211.867V28.8184H209.83V35.1074H208.764ZM221.93 22.9531V27.9023H223.898V28.8047H221.93V35.1074H220.863V22.9531H221.93ZM212.605 31.9492C215.743 30.3906 217.452 28.0459 217.698 25.168H213.166V24.2656H218.785C218.778 27.7041 217.165 30.8418 213.207 32.7969L212.605 31.9492ZM238.227 22.9531V35.1348H237.146V27.8613H233.359V26.9727H237.146V22.9531H238.227ZM228.807 32.1816V24.3203H229.887V31.2793C231.746 31.2588 233.394 31.1631 235.219 30.7871L235.355 31.6758C233.414 32.0791 231.705 32.1816 229.736 32.1816H228.807ZM251.352 30.0215V30.9102H246.279V35.1074H245.227V30.9102H240.223V30.0215H251.352ZM241.658 28.3672V23.6367H249.902V28.3672H241.658ZM242.711 27.5195H248.836V24.5117H242.711V27.5195ZM259.104 23.8965C260.895 23.9033 262.166 25.5508 262.18 28.1348C262.166 30.7256 260.895 32.3662 259.104 32.3594C257.299 32.3662 256.034 30.7256 256.041 28.1348C256.034 25.5508 257.299 23.9033 259.104 23.8965ZM257.053 28.1348C257.06 30.1104 257.9 31.4092 259.104 31.4023C260.32 31.4092 261.141 30.1104 261.141 28.1348C261.141 26.1592 260.32 24.8604 259.104 24.8535C257.9 24.8604 257.06 26.1592 257.053 28.1348ZM264.189 35.1074V22.9531H265.256V27.8066H267.293V28.7363H265.256V35.1074H264.189ZM274.895 23.8828V24.7715H273.65V28.3125C274.272 28.2715 274.888 28.21 275.469 28.1348L275.551 28.9551C273.076 29.3379 270.191 29.3857 268.113 29.3926L267.99 28.4766C268.476 28.4766 269.009 28.4697 269.562 28.4629V24.7715H268.332V23.8828H274.895ZM268.441 34.1504C269.973 33.5967 270.916 32.2773 270.916 31.1016V30.4453H271.941V31.1016C271.935 32.1885 272.516 33.3369 273.671 34C274.84 33.2686 275.435 32.0381 275.441 31.1016V30.4453H276.494V31.1016C276.487 32.3662 277.396 33.624 278.969 34.1504L278.422 34.9707C277.219 34.5195 276.371 33.6719 275.954 32.6465C275.578 33.6445 274.833 34.5947 273.691 35.0664C272.522 34.6084 271.777 33.7061 271.415 32.6875C270.978 33.6719 270.137 34.5264 268.988 34.9707L268.441 34.1504ZM270.615 28.4492C271.265 28.4355 271.928 28.415 272.598 28.3809V24.7715H270.615V28.4492ZM276.385 29.9395V22.9531H277.451V25.9883H279.283V26.8906H277.451V29.9395H276.385ZM285.586 23.1719C288.286 23.1719 289.872 23.917 289.879 25.2637C289.872 26.6445 288.286 27.3896 285.586 27.3965C282.872 27.3896 281.279 26.6445 281.279 25.2637C281.279 23.917 282.872 23.1719 285.586 23.1719ZM280.049 29.0918V28.2168H291.123V29.0918H280.049ZM281.389 30.9648V30.1445H289.701V32.8652H282.482V34.123H290.07V34.9707H281.416V32.0723H288.648V30.9648H281.389ZM282.4 25.2637C282.387 26.1113 283.569 26.5762 285.586 26.5762C287.603 26.5762 288.778 26.1113 288.785 25.2637C288.778 24.4639 287.603 23.9854 285.586 23.9785C283.569 23.9854 282.387 24.4639 282.4 25.2637ZM305.738 22.9668V31.1973H304.658V27.2871H301.992V26.3848H304.658V22.9668H305.738ZM295.867 29.543C298.772 28.6475 300.57 26.959 300.796 24.7988H296.469V23.9238H301.938C301.931 27.041 299.839 29.2832 296.346 30.4043L295.867 29.543ZM297.139 34.2188C299.292 33.8428 301.254 32.4824 301.268 30.6914V30.1309H302.32V30.6914C302.327 32.4619 304.269 33.7949 306.408 34.1777L305.957 35.0391C304.166 34.6973 302.512 33.7471 301.794 32.3252C301.056 33.7607 299.388 34.7109 297.576 35.0664L297.139 34.2188ZM320.777 22.9531V25.7969H322.609V26.6855H320.777V29.4609H319.711V22.9531H320.777ZM311.316 28.8184C314.406 28.1348 316.143 26.6035 316.32 24.6895H311.836V23.8145H317.51C317.503 26.8564 315.35 28.873 311.768 29.6934L311.316 28.8184ZM313.08 34.9434V30.0078H320.832V30.8281H314.16V32.0312H320.695V32.8516H314.16V34.1094H321.119V34.9434H313.08ZM326.629 23.8965C328.42 23.9033 329.691 25.5508 329.705 28.1348C329.691 30.7256 328.42 32.3662 326.629 32.3594C324.824 32.3662 323.56 30.7256 323.566 28.1348C323.56 25.5508 324.824 23.9033 326.629 23.8965ZM324.578 28.1348C324.585 30.1104 325.426 31.4092 326.629 31.4023C327.846 31.4092 328.666 30.1104 328.666 28.1348C328.666 26.1592 327.846 24.8604 326.629 24.8535C325.426 24.8604 324.585 26.1592 324.578 28.1348ZM331.715 35.1074V22.9531H332.781V27.8066H334.818V28.7363H332.781V35.1074H331.715ZM346.604 32.6465V33.5488H335.475V32.6465H338.236V29.3721C337.197 28.832 336.568 27.957 336.568 26.8496C336.568 24.9697 338.414 23.7324 341.012 23.7188C343.609 23.7324 345.455 24.9697 345.455 26.8496C345.455 27.9365 344.847 28.7979 343.842 29.3379V32.6465H346.604ZM337.607 26.8496C337.601 28.21 339.016 29.1191 341.012 29.1191C342.987 29.1191 344.416 28.21 344.416 26.8496C344.416 25.4893 342.987 24.5938 341.012 24.6074C339.016 24.5938 337.601 25.4893 337.607 26.8496ZM339.289 32.6465H342.762V29.7549C342.235 29.8916 341.647 29.9668 341.012 29.9668C340.39 29.9668 339.809 29.8984 339.289 29.7617V32.6465ZM348.859 34.082C348.381 34.0752 347.971 33.6787 347.984 33.1934C347.971 32.7148 348.381 32.3184 348.859 32.3184C349.345 32.3184 349.741 32.7148 349.734 33.1934C349.741 33.6787 349.345 34.0752 348.859 34.082ZM35.5684 44.9531V52.1582H34.4883V48.9316H31.6445V51.2695H26.0664V45.8828H31.6445V48.043H34.4883V44.9531H35.5684ZM27.1328 50.3945H30.5918V46.7578H27.1328V50.3945ZM27.4609 54.8105C27.4541 53.3477 29.0059 52.5068 31.5352 52.5137C34.0576 52.5068 35.6094 53.3477 35.6094 54.8105C35.6094 56.2598 34.0576 57.0801 31.5352 57.0801C29.0059 57.0801 27.4541 56.2598 27.4609 54.8105ZM28.5273 54.8105C28.5205 55.6992 29.6689 56.2324 31.5352 56.2324C33.3945 56.2324 34.543 55.6992 34.543 54.8105C34.543 53.9082 33.3945 53.3682 31.5352 53.3613C29.6689 53.3682 28.5205 53.9082 28.5273 54.8105ZM47.6133 44.9531V57.1348H46.5332V44.9531H47.6133ZM38.043 50.1348C38.0498 47.5508 39.335 45.9033 41.1465 45.8965C42.9512 45.9033 44.2568 47.5508 44.25 50.1348C44.2568 52.7256 42.9512 54.3662 41.1465 54.3594C39.335 54.3662 38.0498 52.7256 38.043 50.1348ZM39.082 50.1348C39.082 52.1104 39.9297 53.4092 41.1465 53.4023C42.3701 53.4092 43.2109 52.1104 43.2109 50.1348C43.2109 48.1592 42.3701 46.8604 41.1465 46.8535C39.9297 46.8604 39.082 48.1592 39.082 50.1348ZM53.3555 45.7461C55.2217 45.7598 56.5889 46.9082 56.5957 48.6035C56.5889 50.1279 55.4814 51.208 53.9023 51.4131V53.4775C55.0371 53.4297 56.1787 53.3477 57.2383 53.2109L57.3066 54.0176C54.7295 54.4551 51.8584 54.4824 49.7188 54.4688L49.541 53.5664C50.5186 53.5596 51.6465 53.5527 52.8223 53.5186V51.4131C51.209 51.2217 50.1084 50.1348 50.1152 48.6035C50.1084 46.9082 51.4551 45.7598 53.3555 45.7461ZM51.168 48.6035C51.1543 49.7451 52.0771 50.5381 53.3555 50.5312C54.6133 50.5381 55.5293 49.7451 55.543 48.6035C55.5293 47.4619 54.6133 46.6826 53.3555 46.6758C52.0771 46.6826 51.1543 47.4619 51.168 48.6035ZM58.0176 57.1074V44.9531H59.084V49.9707H61.0664V50.9004H59.084V57.1074H58.0176ZM74.8066 44.9531V48.1934H76.6387V49.1094H74.8066V52.2812H73.7402V44.9531H74.8066ZM65.332 47.1406V46.252H68.4219V44.8574H69.4883V46.252H72.5781V47.1406H65.332ZM66.0293 49.9023C66.0225 48.6035 67.1914 47.7422 68.9551 47.7422C70.6982 47.7422 71.8672 48.6035 71.8809 49.9023C71.8672 51.2217 70.6982 52.0762 68.9551 52.0762C67.1914 52.0762 66.0225 51.2217 66.0293 49.9023ZM67.0547 49.9023C67.0479 50.7295 67.8066 51.2422 68.9551 51.2559C70.0898 51.2422 70.8555 50.7295 70.8691 49.9023C70.8555 49.1094 70.0898 48.5762 68.9551 48.5762C67.8066 48.5762 67.0479 49.1094 67.0547 49.9023ZM67.1367 56.9434V52.9785H74.8066V56.9434H67.1367ZM68.1895 56.0684H73.7402V53.8398H68.1895V56.0684ZM80.4258 46.4297C80.4121 48.9795 80.0566 51.8506 78.2793 54.209L77.4316 53.7168C78.9492 51.8164 79.4004 49.5537 79.4893 47.3184H77.6777V46.4297H80.4258ZM80.166 54.5098C81.8408 52.3633 82.1348 49.5879 82.1826 47.3184H80.8086V46.4297H83.1191C83.1191 47.4209 83.0918 48.5625 82.9414 49.7383H84.5547V45.2812H85.5801V56.4922H84.5547V50.627H82.7979C82.5176 52.1445 81.9912 53.6826 81 55.0156L80.166 54.5098ZM86.8242 57.1074V44.9531H87.8633V57.1074H86.8242ZM102.766 46.1836V47.4004C102.752 48.8906 102.752 50.5586 102.314 53.0059L101.221 52.8828C101.679 50.5586 101.679 48.8564 101.686 47.4004V47.0723H94.1934V46.1836H102.766ZM93.0176 55.3848V54.4961H97.3652V50.1484H98.418V54.4961H104.092V55.3848H93.0176ZM108.74 47.373C108.747 48.7197 109.684 50.0801 111.242 50.668L110.682 51.4883C109.513 51.0371 108.672 50.1689 108.234 49.123C107.79 50.2783 106.915 51.3105 105.719 51.8301L105.131 50.9961C106.73 50.2988 107.708 48.7266 107.715 47.373V45.7188H108.74V47.373ZM107.346 54.9199C107.332 53.5459 108.891 52.7393 111.42 52.7461C113.936 52.7393 115.501 53.5459 115.508 54.9199C115.501 56.2803 113.936 57.0801 111.42 57.0801C108.891 57.0801 107.332 56.2803 107.346 54.9199ZM108.412 54.9199C108.398 55.7471 109.554 56.2529 111.42 56.2461C113.266 56.2529 114.428 55.7471 114.441 54.9199C114.428 54.0791 113.266 53.5732 111.42 53.5664C109.554 53.5732 108.398 54.0791 108.412 54.9199ZM111.789 52.0898V45.1992H112.801V48.2344H114.414V44.9668H115.439V52.4727H114.414V49.123H112.801V52.0898H111.789ZM126.719 44.9531V47.7012H128.551V48.6035H126.719V51.1875H125.652V44.9531H126.719ZM117.736 50.709V45.7598H123.355V50.709H117.736ZM118.516 56.7793V52.2812H119.555V55.8975C120.259 55.8701 121.195 55.7676 122.057 55.4805L122.221 56.3418C121.038 56.7314 119.883 56.7861 119.09 56.7793H118.516ZM118.789 49.8477H122.316V46.6348H118.789V49.8477ZM121.797 53.2246V52.4043H124.354V51.3242H125.406V52.4043H127.936V53.2246H121.797ZM122.604 55.3711C122.597 54.3184 123.52 53.6689 124.859 53.6621C126.192 53.6689 127.129 54.3184 127.143 55.3711C127.129 56.4238 126.192 57.0801 124.859 57.0801C123.52 57.0801 122.597 56.4238 122.604 55.3711ZM123.561 55.3711C123.561 55.9521 124.101 56.3281 124.859 56.3145C125.618 56.3281 126.158 55.9521 126.158 55.3711C126.158 54.8037 125.618 54.4346 124.859 54.4277C124.101 54.4346 123.561 54.8037 123.561 55.3711ZM134.854 45.7461C137.39 45.7529 139.297 47.0791 139.297 49.082C139.297 51.1055 137.39 52.4316 134.854 52.418C132.317 52.4316 130.41 51.1055 130.41 49.082C130.41 47.0791 132.317 45.7529 134.854 45.7461ZM129.316 55.4941V54.5918H140.445V55.4941H129.316ZM131.436 49.082C131.422 50.5586 132.892 51.543 134.854 51.543C136.802 51.543 138.258 50.5586 138.258 49.082C138.258 47.626 136.802 46.6143 134.854 46.6211C132.892 46.6143 131.422 47.626 131.436 49.082ZM151.492 44.9531V52.0898H150.412V49.7109H147.979V48.8359H150.412V47.3047H147.979V46.4297H150.412V44.9531H151.492ZM141.43 50.9688C143.275 50.2646 144.492 48.5967 144.506 46.6758V45.4043H145.559V46.6758C145.545 48.4189 146.762 50.0938 148.539 50.7637L147.924 51.6113C146.604 51.0713 145.565 49.998 145.039 48.665C144.526 50.1143 143.453 51.249 142.031 51.8164L141.43 50.9688ZM142.1 56.1504C143.638 55.5967 144.561 54.2773 144.574 53.1016V52.5137H145.6V53.1016C145.593 54.1953 146.174 55.3369 147.329 56.0068C148.498 55.2754 149.093 54.0381 149.1 53.1016V52.5137H150.152V53.1016C150.146 54.3594 151.055 55.624 152.641 56.1504L152.08 56.957C150.87 56.5127 150.022 55.665 149.612 54.6396C149.229 55.6309 148.484 56.5742 147.35 57.0527C146.188 56.6016 145.436 55.6992 145.066 54.6807C144.629 55.6582 143.795 56.5127 142.633 56.957L142.1 56.1504ZM156.783 45.8965C158.438 45.9033 159.634 47.3252 159.798 49.6016H162.525V44.9531H163.592V57.1348H162.525V50.4902H159.812C159.695 52.876 158.479 54.3662 156.783 54.3594C154.985 54.3662 153.728 52.7256 153.734 50.1348C153.728 47.5508 154.985 45.9033 156.783 45.8965ZM154.76 50.1348C154.767 52.1104 155.587 53.4092 156.783 53.4023C157.973 53.4092 158.807 52.1104 158.807 50.1348C158.807 48.1592 157.973 46.8604 156.783 46.8535C155.587 46.8604 154.767 48.1592 154.76 50.1348ZM176.744 54.6465V55.5488H165.615V54.6465H168.377V51.3721C167.338 50.832 166.709 49.957 166.709 48.8496C166.709 46.9697 168.555 45.7324 171.152 45.7188C173.75 45.7324 175.596 46.9697 175.596 48.8496C175.596 49.9365 174.987 50.7979 173.982 51.3379V54.6465H176.744ZM167.748 48.8496C167.741 50.21 169.156 51.1191 171.152 51.1191C173.128 51.1191 174.557 50.21 174.557 48.8496C174.557 47.4893 173.128 46.5938 171.152 46.6074C169.156 46.5938 167.741 47.4893 167.748 48.8496ZM169.43 54.6465H172.902V51.7549C172.376 51.8916 171.788 51.9668 171.152 51.9668C170.53 51.9668 169.949 51.8984 169.43 51.7617V54.6465ZM191.305 44.9531V52.1992H190.225V49.0137H187.777V48.125H190.225V44.9531H191.305ZM181.283 51.2285C183.088 50.5791 184.373 48.9316 184.373 47.1953V46.7441H181.625V45.8418H188.174V46.7441H185.453V47.1816C185.453 48.7676 186.67 50.2783 188.447 50.8867L187.887 51.748C186.526 51.2559 185.467 50.2305 184.94 48.9795C184.421 50.4014 183.293 51.5361 181.844 52.0898L181.283 51.2285ZM183.197 54.8379C183.19 53.4092 184.742 52.5752 187.271 52.582C189.794 52.5752 191.346 53.4092 191.346 54.8379C191.346 56.2734 189.794 57.0938 187.271 57.1074C184.742 57.0938 183.19 56.2734 183.197 54.8379ZM184.264 54.8379C184.257 55.7197 185.405 56.2529 187.271 56.2461C189.131 56.2529 190.279 55.7197 190.279 54.8379C190.279 53.9492 189.131 53.416 187.271 53.416C185.405 53.416 184.257 53.9492 184.264 54.8379ZM202.83 44.9531V47.5918H204.662V48.4941H202.83V51.1465H201.764V44.9531H202.83ZM193.848 50.5039V45.6504H199.467V50.5039H193.848ZM194.9 49.6426H198.428V46.5254H194.9V49.6426ZM195.078 52.582V51.7207H202.83V54.6875H196.158V56.082H203.281V56.9434H195.105V53.8672H201.764V52.582H195.078ZM206.713 56.082C206.234 56.0752 205.824 55.6787 205.838 55.1934C205.824 54.7148 206.234 54.3184 206.713 54.3184C207.198 54.3184 207.595 54.7148 207.588 55.1934C207.595 55.6787 207.198 56.0752 206.713 56.082ZM210.268 56.082C209.789 56.0752 209.379 55.6787 209.393 55.1934C209.379 54.7148 209.789 54.3184 210.268 54.3184C210.753 54.3184 211.149 54.7148 211.143 55.1934C211.149 55.6787 210.753 56.0752 210.268 56.082Z" fill="#2C2C2C"/>
<defs>
<filter id="filter0_d_1694_10418" x="0.0926595" y="2.0791" width="375.815" height="81.5121" filterUnits="userSpaceOnUse" color-interpolation-filters="sRGB">
<feFlood flood-opacity="0" result="BackgroundImageFix"/>
<feColorMatrix in="SourceAlpha" type="matrix" values="0 0 0 0 0 0 0 0 0 0 0 0 0 0 0 0 0 0 127 0" result="hardAlpha"/>
<feMorphology radius="6.79558" operator="erode" in="SourceAlpha" result="effect1_dropShadow_1694_10418"/>
<feOffset dy="9.06077"/>
<feGaussianBlur stdDeviation="5.66298"/>
<feComposite in2="hardAlpha" operator="out"/>
<feColorMatrix type="matrix" values="0 0 0 0 0 0 0 0 0 0 0 0 0 0 0 0 0 0 0.1 0"/>
<feBlend mode="normal" in2="BackgroundImageFix" result="effect1_dropShadow_1694_10418"/>
<feBlend mode="normal" in="SourceGraphic" in2="effect1_dropShadow_1694_10418" result="shape"/>
</filter>
</defs>
</svg>
