<svg width="280" height="84" viewBox="0 0 280 84" fill="none" xmlns="http://www.w3.org/2000/svg">
<g filter="url(#filter0_d_1694_10424)">
<path d="M4.55177 17.3156C4.55176 12.8973 8.13349 9.31555 12.5518 9.31555H244.838C245.977 9.31555 247.062 8.82976 247.821 7.98006L251.906 3.4064C253.517 1.6025 256.348 1.63001 257.924 3.46488L261.751 7.92158C262.511 8.80644 263.619 9.31555 264.786 9.31555H267.448C271.866 9.31555 275.448 12.8973 275.448 17.3155L275.448 62C275.448 66.4183 271.866 70 267.448 70H12.5518C8.13355 70 4.55182 66.4183 4.55182 62L4.55177 17.3156Z" fill="#F8F0FF"/>
</g>
<path d="M37.6074 30.9258V31.8281H32.5352V36.1074H31.4824V31.8281H26.4785V30.9258H37.6074ZM27.7363 27.125C27.7432 25.4775 29.459 24.4521 32.0156 24.4453C34.5654 24.4521 36.2949 25.4775 36.2949 27.125C36.2949 28.7451 34.5654 29.7705 32.0156 29.7637C29.459 29.7705 27.7432 28.7451 27.7363 27.125ZM28.8438 27.125C28.8301 28.2051 30.1221 28.9023 32.0156 28.9023C33.9092 28.9023 35.1943 28.2051 35.2012 27.125C35.1943 26.0244 33.9092 25.3203 32.0156 25.3203C30.1221 25.3203 28.8301 26.0244 28.8438 27.125ZM48.627 23.9531V36.1348H47.5605V23.9531H48.627ZM39.2754 25.9766V25.0879H44.9355V29.4082H40.3965V32.2793C42.4131 32.2861 44.2109 32.1904 46.3848 31.8418L46.4941 32.7441C44.2588 33.0928 42.4131 33.1816 40.3145 33.1816H39.3027V28.5332H43.8555V25.9766H39.2754ZM65.5117 25.7988V26.7012H63.707V28.3828H65.5117V29.2988H63.707V31.1992H62.6406V23.9531H63.707V25.7988H65.5117ZM54.793 30.0918V24.7051H55.873V29.1895C57.6094 29.1826 59.3936 29.0596 61.3555 28.6562L61.4922 29.5312C59.4277 29.9551 57.5889 30.0986 55.7637 30.0918H54.793ZM55.7773 33.7285C55.7705 32.2656 57.3496 31.3428 59.8105 31.3496C62.251 31.3428 63.8164 32.2656 63.8164 33.7285C63.8164 35.2051 62.251 36.0938 59.8105 36.1074C57.3496 36.0938 55.7705 35.2051 55.7773 33.7285ZM56.8301 33.7285C56.8164 34.6445 57.9854 35.2256 59.8105 35.2324C61.5947 35.2256 62.7705 34.6445 62.7773 33.7285C62.7705 32.7988 61.5947 32.2314 59.8105 32.2383C57.9854 32.2314 56.8164 32.7988 56.8301 33.7285ZM76.3262 23.9531V36.1348H75.2461V23.9531H76.3262ZM66.7559 29.1348C66.7627 26.5508 68.0479 24.9033 69.8594 24.8965C71.6641 24.9033 72.9697 26.5508 72.9629 29.1348C72.9697 31.7256 71.6641 33.3662 69.8594 33.3594C68.0479 33.3662 66.7627 31.7256 66.7559 29.1348ZM67.7949 29.1348C67.7949 31.1104 68.6426 32.4092 69.8594 32.4023C71.083 32.4092 71.9238 31.1104 71.9238 29.1348C71.9238 27.1592 71.083 25.8604 69.8594 25.8535C68.6426 25.8604 67.7949 27.1592 67.7949 29.1348ZM88.2207 29.6543V30.5293H84.4609V33.6738H89.5332V34.5762H78.4043V33.6738H83.4082V30.5293H79.8262V24.9512H88.0977V25.8262H80.9062V29.6543H88.2207ZM97.6406 26.373C97.6475 27.7197 98.584 29.0801 100.143 29.668L99.582 30.4883C98.4131 30.0371 97.5723 29.1689 97.1348 28.123C96.6904 29.2783 95.8154 30.3105 94.6191 30.8301L94.0312 29.9961C95.6309 29.2988 96.6084 27.7266 96.6152 26.373V24.7188H97.6406V26.373ZM96.2461 33.9199C96.2324 32.5459 97.791 31.7393 100.32 31.7461C102.836 31.7393 104.401 32.5459 104.408 33.9199C104.401 35.2803 102.836 36.0801 100.32 36.0801C97.791 36.0801 96.2324 35.2803 96.2461 33.9199ZM97.3125 33.9199C97.2988 34.7471 98.4541 35.2529 100.32 35.2461C102.166 35.2529 103.328 34.7471 103.342 33.9199C103.328 33.0791 102.166 32.5732 100.32 32.5664C98.4541 32.5732 97.2988 33.0791 97.3125 33.9199ZM100.689 31.0898V24.1992H101.701V27.2344H103.314V23.9668H104.34V31.4727H103.314V28.123H101.701V31.0898H100.689ZM115.619 23.9531V27.043H117.451V27.959H115.619V31.0898H114.553V23.9531H115.619ZM106.104 30.1191C109.084 29.3125 110.923 27.6855 111.142 25.6211H106.65V24.7324H112.283C112.276 27.8086 110.13 30.0029 106.541 30.9531L106.104 30.1191ZM107.662 32.5254V31.6504H115.619V36.1074H114.553V32.5254H107.662ZM129.592 28.8066V29.709H127.623V36.1074H126.557V23.9531H127.623V28.8066H129.592ZM118.723 33.0176V25.1562H119.789V32.1152C121.566 32.1152 123.378 31.9785 125.381 31.5547L125.518 32.4707C123.419 32.8945 121.532 33.0176 119.693 33.0176H118.723ZM131.984 25.2793V32.0879C133.304 32.0742 134.548 31.999 136.004 31.6914L136.154 32.6211C134.534 32.9629 133.167 33.0244 131.684 33.0312H130.918V25.2793H131.984ZM134.322 28.9434V28.0547H137.098V24.2539H138.123V35.4922H137.098V28.9434H134.322ZM139.695 36.1074V23.9531H140.721V36.1074H139.695ZM153.545 33.6465V34.5488H142.416V33.6465H145.178V30.3721C144.139 29.832 143.51 28.957 143.51 27.8496C143.51 25.9697 145.355 24.7324 147.953 24.7188C150.551 24.7324 152.396 25.9697 152.396 27.8496C152.396 28.9365 151.788 29.7979 150.783 30.3379V33.6465H153.545ZM144.549 27.8496C144.542 29.21 145.957 30.1191 147.953 30.1191C149.929 30.1191 151.357 29.21 151.357 27.8496C151.357 26.4893 149.929 25.5938 147.953 25.6074C145.957 25.5938 144.542 26.4893 144.549 27.8496ZM146.23 33.6465H149.703V30.7549C149.177 30.8916 148.589 30.9668 147.953 30.9668C147.331 30.9668 146.75 30.8984 146.23 30.7617V33.6465ZM155.801 35.082C155.322 35.0752 154.912 34.6787 154.926 34.1934C154.912 33.7148 155.322 33.3184 155.801 33.3184C156.286 33.3184 156.683 33.7148 156.676 34.1934C156.683 34.6787 156.286 35.0752 155.801 35.082ZM159.355 35.082C158.877 35.0752 158.467 34.6787 158.48 34.1934C158.467 33.7148 158.877 33.3184 159.355 33.3184C159.841 33.3184 160.237 33.7148 160.23 34.1934C160.237 34.6787 159.841 35.0752 159.355 35.082ZM162.91 35.082C162.432 35.0752 162.021 34.6787 162.035 34.1934C162.021 33.7148 162.432 33.3184 162.91 33.3184C163.396 33.3184 163.792 33.7148 163.785 34.1934C163.792 34.6787 163.396 35.0752 162.91 35.082ZM179.795 33.6602V34.5488H168.666V33.6602H173.67V31.0352H169.979V24.8145H171.059V27.0156H177.375V24.8145H178.428V31.0352H174.723V33.6602H179.795ZM171.059 30.1602H177.375V27.8906H171.059V30.1602ZM191.266 25.7578V26.6465H181.312V25.7578H185.77V24.1582H186.822V25.7578H191.266ZM180.766 34.6855V33.7969H185.77V32.0879C183.603 31.9717 182.297 31.1309 182.311 29.7637C182.297 28.3213 183.821 27.4668 186.303 27.4805C188.75 27.4668 190.302 28.3213 190.295 29.7637C190.302 31.1309 188.969 31.9717 186.822 32.0879V33.7969H191.895V34.6855H180.766ZM183.391 29.7637C183.377 30.6865 184.491 31.2197 186.303 31.2266C188.094 31.2197 189.208 30.6865 189.201 29.7637C189.208 28.8613 188.094 28.3281 186.303 28.3281C184.491 28.3281 183.377 28.8613 183.391 29.7637ZM196.98 27.6855C196.967 29.6338 198.375 31.7803 200.139 32.6211L199.523 33.4688C198.156 32.7988 197.001 31.3633 196.454 29.7158C195.894 31.5 194.677 33.0723 193.316 33.7695L192.66 32.9219C194.41 32.0674 195.914 29.7568 195.928 27.6855V26.0996H193.098V25.2109H199.715V26.0996H196.98V27.6855ZM201.205 36.1074V23.9531H202.271V28.875H204.309V29.791H202.271V36.1074H201.205ZM214.986 23.9531V30.8574H213.934V23.9531H214.986ZM205.73 29.9277V24.6777H206.811V29.0117C208.82 28.998 210.618 28.8613 212.553 28.4512L212.717 29.3535C210.659 29.7705 208.813 29.9141 206.715 29.9277H205.73ZM207.098 35.9434V31.418H214.986V35.9434H207.098ZM208.15 35.0684H213.934V32.2793H208.15V35.0684ZM226.689 25.1836V33.0176H221.084V25.1836H226.689ZM222.123 32.1426H225.623V26.0449H222.123V32.1426ZM228.918 36.1074V23.9531H229.984V28.8066H232.021V29.7363H229.984V36.1074H228.918ZM238.215 24.2266C240.86 24.2266 242.501 25.0811 242.508 26.5371C242.501 27.9727 240.86 28.8135 238.215 28.8066C235.569 28.8135 233.908 27.9727 233.908 26.5371C233.908 25.0811 235.569 24.2266 238.215 24.2266ZM232.678 30.748V29.8594H243.752V30.748H232.678ZM234.031 35.9434V31.9512H242.398V35.9434H234.031ZM235.016 26.5371C235.009 27.4189 236.246 27.9521 238.215 27.959C240.163 27.9521 241.407 27.4189 241.414 26.5371C241.407 25.6279 240.163 25.0879 238.215 25.0879C236.246 25.0879 235.009 25.6279 235.016 26.5371ZM235.098 35.0684H241.346V32.8125H235.098V35.0684ZM255.195 23.9531V36.1074H254.156V23.9531H255.195ZM244.928 29.2031C244.935 26.6191 245.96 24.9854 247.539 24.9785C249.016 24.9854 250.014 26.4072 250.15 28.6973H251.723V24.2129H252.748V35.4922H251.723V29.5859H250.157C250.055 31.9512 249.036 33.4346 247.539 33.4277C245.96 33.4346 244.935 31.7871 244.928 29.2031ZM245.939 29.2031C245.926 31.1719 246.555 32.416 247.539 32.4023C248.53 32.416 249.159 31.1719 249.152 29.2031C249.159 27.2275 248.53 25.9902 247.539 25.9902C246.555 25.9902 245.926 27.2275 245.939 29.2031ZM31.9883 53.6367C34.5928 53.6367 36.2471 54.457 36.2539 55.8652C36.2471 57.2598 34.5928 58.0801 31.9883 58.0801C29.3838 58.0801 27.7295 57.2598 27.7363 55.8652C27.7295 54.457 29.3838 53.6367 31.9883 53.6367ZM26.5059 52.502V51.627H31.0859V49.2754H32.1387V51.627H37.5664V52.502H26.5059ZM27.8184 47.457V46.582H36.1582V47.6074C36.1514 48.5918 36.1514 49.5762 35.8164 50.834L34.7637 50.7109C35.0918 49.46 35.0918 48.5576 35.0918 47.6074V47.457H27.8184ZM28.8027 55.8652C28.7959 56.7129 30.0537 57.2324 31.9883 57.2324C33.9297 57.2324 35.1738 56.7129 35.1875 55.8652C35.1738 54.9971 33.9297 54.4639 31.9883 54.457C30.0537 54.4639 28.7959 54.9971 28.8027 55.8652ZM48.0938 45.9531V48.9336H49.9258V49.8223H48.0938V52.8574H47.0273V45.9531H48.0938ZM38.5781 52.1191C41.5654 51.3125 43.3906 49.6924 43.6162 47.6348H39.125V46.7461H44.7715C44.7578 49.8086 42.6182 52.0029 39.0156 52.9805L38.5781 52.1191ZM40.3965 57.9434V53.418H48.0938V57.9434H40.3965ZM41.4629 57.0684H47.0273V54.3066H41.4629V57.0684ZM60.7129 45.9531V58.1348H59.6328V45.9531H60.7129ZM51.1426 51.1348C51.1494 48.5508 52.4346 46.9033 54.2461 46.8965C56.0508 46.9033 57.3564 48.5508 57.3496 51.1348C57.3564 53.7256 56.0508 55.3662 54.2461 55.3594C52.4346 55.3662 51.1494 53.7256 51.1426 51.1348ZM52.1816 51.1348C52.1816 53.1104 53.0293 54.4092 54.2461 54.4023C55.4697 54.4092 56.3105 53.1104 56.3105 51.1348C56.3105 49.1592 55.4697 47.8604 54.2461 47.8535C53.0293 47.8604 52.1816 49.1592 52.1816 51.1348ZM76.3398 45.9668V52.9531H75.2598V45.9668H76.3398ZM66.3457 51.7637C67.3779 51.7637 68.5811 51.7637 69.832 51.7227V50.4102H67.4531V46.5684H73.2227V47.457H68.5332V49.5488H73.332V50.4102H70.9121V51.6748C72.04 51.6201 73.1816 51.5312 74.248 51.3809L74.3164 52.1602C71.6504 52.6113 68.7041 52.6523 66.5098 52.6523L66.3457 51.7637ZM68.3281 57.9434V53.5H69.3945V54.7988H75.2871V53.5H76.3398V57.9434H68.3281ZM69.3945 57.0684H75.2871V55.6328H69.3945V57.0684ZM88.4258 45.9531V58.1074H87.3594V45.9531H88.4258ZM79.1973 54.9766V47.1562H80.25V54.0469C82.1094 54.0332 84.0234 53.8896 86.0605 53.459L86.2109 54.375C84.0508 54.8262 82.1299 54.9766 80.1816 54.9766H79.1973ZM99.9102 45.9531V50.7656H101.947V51.668H99.9102V58.1348H98.8438V45.9531H99.9102ZM91.0371 55.0859V47.1426H96.7109V48.0312H92.1035V54.1836C94.3047 54.1768 95.8564 54.0811 97.668 53.7461L97.8047 54.6758C95.8975 55.0176 94.3047 55.0859 91.9941 55.0859H91.0371ZM103.889 57.082C103.41 57.0752 103 56.6787 103.014 56.1934C103 55.7148 103.41 55.3184 103.889 55.3184C104.374 55.3184 104.771 55.7148 104.764 56.1934C104.771 56.6787 104.374 57.0752 103.889 57.082ZM113.76 47.8809C113.746 49.3301 115.004 50.6494 116.795 51.1758L116.289 52.0098C114.881 51.5928 113.78 50.6973 113.24 49.5488C112.714 50.8545 111.565 51.8594 110.082 52.3242L109.549 51.4902C111.388 50.916 112.673 49.4941 112.68 47.9082V47.5254H109.918V46.6504H116.467V47.5254H113.76V47.8809ZM111.395 53.6504V52.7891H119.146V55.7012H112.475V57.1504H119.598V57.998H111.422V54.9082H118.08V53.6504H111.395ZM118.08 52.2285V45.9531H119.146V48.6191H120.979V49.5078H119.146V52.2285H118.08ZM134.924 46.5547V47.3887C134.924 48.3047 134.924 49.4805 134.616 51.0801H136.387V51.9688H125.258V51.0801H133.536C133.857 49.4873 133.864 48.332 133.857 47.4297H126.666V46.5547H134.924ZM126.434 54.6484V53.7871H135.02V58.1484H133.939V54.6484H126.434ZM148.432 52.2422V53.1309H137.357V52.2422H142.361V50.7793H138.834V46.2402H139.9V47.6484H145.916V46.2402H146.982V50.7793H143.428V52.2422H148.432ZM138.588 55.1953V54.334H147.064V58.1074H145.984V55.1953H138.588ZM139.9 49.918H145.916V48.4688H139.9V49.918ZM158.863 45.9531V50.9707H160.9V51.8594H158.863V58.1074H157.797V45.9531H158.863ZM149.389 48.7969V47.9082H152.52V46.1035H153.586V47.9082H156.621V48.7969H149.389ZM150.086 52.5977C150.079 50.957 151.337 49.8086 153.066 49.8086C154.782 49.8086 156.033 50.957 156.047 52.5977C156.033 54.2451 154.782 55.3867 153.066 55.3867C151.337 55.3867 150.079 54.2451 150.086 52.5977ZM151.111 52.5977C151.104 53.7051 151.932 54.4844 153.066 54.4707C154.188 54.4844 155.008 53.7051 155.021 52.5977C155.008 51.4971 154.188 50.7041 153.066 50.7109C151.932 50.7041 151.104 51.4971 151.111 52.5977ZM165.877 49.2207C165.87 51.4424 167.381 53.6709 169.172 54.4844L168.516 55.332C167.128 54.6621 165.932 53.2197 165.351 51.4902C164.79 53.3223 163.594 54.8604 162.172 55.5781L161.488 54.6758C163.3 53.8486 164.797 51.5244 164.811 49.2207V47.0059H165.877V49.2207ZM170.498 58.1348V45.9531H171.578V58.1348H170.498ZM183.691 45.9531V52.1738H182.625V45.9531H183.691ZM173.861 51.5312C176.91 50.8545 178.688 49.3984 178.879 47.4434H174.477V46.5547H180.055C180.048 49.6582 177.854 51.5928 174.258 52.4336L173.861 51.5312ZM175.789 53.6094V52.748H183.691V55.6875H176.883V57.1367H184.129V57.998H175.816V54.8672H182.625V53.6094H175.789ZM198.676 45.9531V50.7383H200.713V51.668H198.676V58.1074H197.609V45.9531H198.676ZM189.775 55.1953V46.9922H190.842V50.2051H194.396V46.9922H195.463V55.1953H189.775ZM190.842 54.293H194.396V51.0664H190.842V54.293ZM210.775 45.9531V50.793H212.812V51.6953H210.775V58.1348H209.709V45.9531H210.775ZM201.848 47.9766V47.0879H207.371V51.4355H202.941V54.2793C205.197 54.2861 206.776 54.1973 208.615 53.8555L208.725 54.7441C206.811 55.0928 205.19 55.1816 202.846 55.1953H201.875V50.5469H206.305V47.9766H201.848ZM224.598 55.6465V56.5488H213.469V55.6465H216.23V52.3721C215.191 51.832 214.562 50.957 214.562 49.8496C214.562 47.9697 216.408 46.7324 219.006 46.7188C221.604 46.7324 223.449 47.9697 223.449 49.8496C223.449 50.9365 222.841 51.7979 221.836 52.3379V55.6465H224.598ZM215.602 49.8496C215.595 51.21 217.01 52.1191 219.006 52.1191C220.981 52.1191 222.41 51.21 222.41 49.8496C222.41 48.4893 220.981 47.5938 219.006 47.6074C217.01 47.5938 215.595 48.4893 215.602 49.8496ZM217.283 55.6465H220.756V52.7549C220.229 52.8916 219.642 52.9668 219.006 52.9668C218.384 52.9668 217.803 52.8984 217.283 52.7617V55.6465ZM227.537 47.1016L227.441 54.2109H226.293L226.197 47.1016H227.537ZM225.992 56.1934C225.979 55.7148 226.389 55.3184 226.867 55.3184C227.353 55.3184 227.749 55.7148 227.742 56.1934C227.749 56.6787 227.353 57.0752 226.867 57.082C226.389 57.0752 225.979 56.6787 225.992 56.1934Z" fill="#2C2C2C"/>
<defs>
<filter id="filter0_d_1694_10424" x="0.0213704" y="2.0708" width="279.957" height="81.5204" filterUnits="userSpaceOnUse" color-interpolation-filters="sRGB">
<feFlood flood-opacity="0" result="BackgroundImageFix"/>
<feColorMatrix in="SourceAlpha" type="matrix" values="0 0 0 0 0 0 0 0 0 0 0 0 0 0 0 0 0 0 127 0" result="hardAlpha"/>
<feMorphology radius="6.79558" operator="erode" in="SourceAlpha" result="effect1_dropShadow_1694_10424"/>
<feOffset dy="9.06077"/>
<feGaussianBlur stdDeviation="5.66298"/>
<feComposite in2="hardAlpha" operator="out"/>
<feColorMatrix type="matrix" values="0 0 0 0 0 0 0 0 0 0 0 0 0 0 0 0 0 0 0.1 0"/>
<feBlend mode="normal" in2="BackgroundImageFix" result="effect1_dropShadow_1694_10424"/>
<feBlend mode="normal" in="SourceGraphic" in2="effect1_dropShadow_1694_10424" result="shape"/>
</filter>
</defs>
</svg>
