<svg width="35" height="31" viewBox="0 0 35 31" fill="none" xmlns="http://www.w3.org/2000/svg">
<path fill-rule="evenodd" clip-rule="evenodd" d="M22.3808 0.585843C25.0041 2.10039 25.5494 6.09108 23.6491 9.58772C24.2797 9.17181 24.9859 8.81833 25.7538 8.54802C29.6191 7.18748 33.5854 8.45067 34.6127 11.3694C35.6401 14.2881 33.3394 17.7571 29.4741 19.1176C28.8983 19.3202 28.3204 19.4647 27.7502 19.5541C30.1487 22.3953 30.5073 26.1102 28.4699 28.1476C26.282 30.3355 21.9274 32.4989 19.0299 29.6013C17.9792 28.5507 17.2643 26.9788 16.8843 25.2977C14.6849 28.6384 8.57337 29.5544 5.95914 28.0451C3.27947 26.498 2.58379 23.4732 4.63267 19.9244C5.28064 18.8021 6.37767 17.8239 7.65965 17.0599C7.07027 17.0161 6.46801 16.9153 5.86343 16.7533C1.90529 15.6928 -0.654191 12.4101 0.146649 9.42126C0.94749 6.43249 4.80541 4.86935 8.76356 5.9299C10.2836 6.3372 11.5973 7.07214 12.5937 7.99233C12.7032 6.75004 13.1061 5.44488 13.819 4.21018C15.8679 0.66141 19.7011 -0.961253 22.3808 0.585843ZM15.241 18.5653C16.9292 20.2535 19.3762 20.5436 21.0644 18.8554C22.7526 17.1672 22.4625 14.5473 20.7743 12.8591C19.0861 11.1709 16.6391 11.0537 14.9509 12.7419C13.2627 14.4301 13.5528 16.8771 15.241 18.5653Z" fill="#C5AAFF"/>
</svg>
