<svg width="133" height="22" viewBox="0 0 133 22" fill="none" xmlns="http://www.w3.org/2000/svg">
<path d="M6.83888 18.384C5.60688 18.384 4.52688 18.136 3.59888 17.64C2.67088 17.144 1.93488 16.448 1.39088 15.552C0.862877 14.656 0.550877 13.624 0.454877 12.456L3.14288 12.264C3.25488 13.048 3.47088 13.712 3.79088 14.256C4.12688 14.8 4.55088 15.216 5.06288 15.504C5.59088 15.792 6.19888 15.936 6.88688 15.936C7.57488 15.936 8.15888 15.848 8.63888 15.672C9.11888 15.48 9.47888 15.208 9.71888 14.856C9.97488 14.488 10.1029 14.072 10.1029 13.608C10.1029 13.08 9.98288 12.64 9.74288 12.288C9.50288 11.92 9.07888 11.584 8.47088 11.28C7.86288 10.976 6.99888 10.68 5.87888 10.392C4.67888 10.088 3.71088 9.728 2.97488 9.312C2.25488 8.896 1.71088 8.384 1.34288 7.776C0.990877 7.168 0.814877 6.424 0.814877 5.544C0.814877 4.568 1.04688 3.704 1.51088 2.952C1.99088 2.2 2.67088 1.616 3.55088 1.2C4.43088 0.783999 5.45488 0.576 6.62288 0.576C7.74288 0.576 8.72688 0.808 9.57488 1.272C10.4389 1.736 11.1269 2.384 11.6389 3.216C12.1509 4.048 12.4709 5.008 12.5989 6.096L9.88688 6.24C9.79088 5.6 9.60688 5.04 9.33488 4.56C9.06288 4.08 8.69488 3.704 8.23088 3.432C7.76688 3.16 7.21488 3.024 6.57488 3.024C5.64688 3.024 4.91088 3.248 4.36688 3.696C3.82288 4.128 3.55088 4.704 3.55088 5.424C3.55088 5.92 3.66288 6.328 3.88688 6.648C4.11088 6.952 4.47888 7.224 4.99088 7.464C5.50288 7.704 6.23888 7.944 7.19888 8.184C8.57488 8.536 9.67088 8.952 10.4869 9.432C11.3029 9.912 11.8949 10.496 12.2629 11.184C12.6469 11.856 12.8389 12.688 12.8389 13.68C12.8389 14.592 12.5829 15.408 12.0709 16.128C11.5749 16.832 10.8709 17.384 9.95888 17.784C9.06288 18.184 8.02288 18.384 6.83888 18.384ZM20.5815 5.184H23.1735V18H20.5815V5.184ZM15.5655 15.792H27.4695V18H15.5655V15.792ZM15.8055 5.184H22.8855V7.392H15.8055V5.184ZM20.4375 0.887999H23.1255V3.432H20.4375V0.887999ZM30.4601 5.184H32.7881L32.8841 8.616L32.5721 8.448C32.7961 7.264 33.2681 6.376 33.9881 5.784C34.7241 5.192 35.6121 4.896 36.6521 4.896C37.9961 4.896 39.0201 5.336 39.7241 6.216C40.4281 7.096 40.7801 8.264 40.7801 9.72V18H38.2121V10.416C38.2121 9.296 38.0281 8.464 37.6601 7.92C37.3081 7.376 36.7161 7.104 35.8841 7.104C35.0361 7.104 34.3481 7.408 33.8201 8.016C33.2921 8.608 33.0281 9.44 33.0281 10.512V18H30.4601V5.184ZM50.0827 18.288C48.8987 18.288 47.8507 18.016 46.9387 17.472C46.0427 16.928 45.3467 16.152 44.8507 15.144C44.3547 14.12 44.1067 12.936 44.1067 11.592C44.1067 10.248 44.3547 9.072 44.8507 8.064C45.3467 7.04 46.0427 6.256 46.9387 5.712C47.8507 5.168 48.8987 4.896 50.0827 4.896C51.0587 4.896 51.9387 5.088 52.7227 5.472C53.5067 5.856 54.1547 6.408 54.6667 7.128C55.1787 7.832 55.5147 8.672 55.6747 9.648L52.9867 9.816C52.7947 9 52.4427 8.368 51.9307 7.92C51.4347 7.472 50.8187 7.248 50.0827 7.248C49.0587 7.248 48.2587 7.64 47.6827 8.424C47.1067 9.192 46.8187 10.248 46.8187 11.592C46.8187 12.936 47.1067 14 47.6827 14.784C48.2587 15.552 49.0587 15.936 50.0827 15.936C50.8507 15.936 51.4907 15.696 52.0027 15.216C52.5147 14.736 52.8587 14.064 53.0347 13.2L55.7227 13.368C55.4827 14.856 54.8507 16.048 53.8267 16.944C52.8187 17.84 51.5707 18.288 50.0827 18.288ZM64.3294 18.288C63.1454 18.288 62.1054 18.016 61.2094 17.472C60.3134 16.928 59.6174 16.152 59.1214 15.144C58.6254 14.12 58.3774 12.936 58.3774 11.592C58.3774 10.248 58.6254 9.072 59.1214 8.064C59.6174 7.04 60.3054 6.256 61.1854 5.712C62.0814 5.168 63.1134 4.896 64.2814 4.896C65.3854 4.896 66.3774 5.16 67.2574 5.688C68.1534 6.2 68.8494 6.968 69.3454 7.992C69.8574 9.016 70.1134 10.232 70.1134 11.64V12.264H61.0894C61.1854 13.464 61.5134 14.376 62.0734 15C62.6494 15.624 63.4014 15.936 64.3294 15.936C65.0494 15.936 65.6414 15.768 66.1054 15.432C66.5854 15.08 66.9374 14.592 67.1614 13.968L69.8734 14.208C69.4894 15.44 68.8094 16.432 67.8334 17.184C66.8734 17.92 65.7054 18.288 64.3294 18.288ZM67.3054 10.368C67.1934 9.36 66.8654 8.592 66.3214 8.064C65.7934 7.52 65.1134 7.248 64.2814 7.248C63.4334 7.248 62.7374 7.52 62.1934 8.064C61.6494 8.592 61.2974 9.36 61.1374 10.368H67.3054ZM76.632 5.184H78.48L78.696 8.4H78.504C78.648 7.328 78.992 6.528 79.536 6C80.08 5.456 80.816 5.184 81.744 5.184H84.552V7.464H81.936C81.328 7.464 80.816 7.576 80.4 7.8C80 8.024 79.696 8.36 79.488 8.808C79.296 9.24 79.2 9.776 79.2 10.416V18H76.632V5.184ZM73.464 15.792H83.112V18H73.464V15.792ZM73.464 5.184H77.976V7.392H73.464V5.184ZM93.1106 18.288C91.9266 18.288 90.8866 18.016 89.9906 17.472C89.0946 16.928 88.3986 16.152 87.9026 15.144C87.4066 14.12 87.1586 12.936 87.1586 11.592C87.1586 10.248 87.4066 9.072 87.9026 8.064C88.3986 7.04 89.0866 6.256 89.9666 5.712C90.8626 5.168 91.8946 4.896 93.0626 4.896C94.1666 4.896 95.1586 5.16 96.0386 5.688C96.9346 6.2 97.6306 6.968 98.1266 7.992C98.6386 9.016 98.8946 10.232 98.8946 11.64V12.264H89.8706C89.9666 13.464 90.2946 14.376 90.8546 15C91.4306 15.624 92.1826 15.936 93.1106 15.936C93.8306 15.936 94.4226 15.768 94.8866 15.432C95.3666 15.08 95.7186 14.592 95.9426 13.968L98.6546 14.208C98.2706 15.44 97.5906 16.432 96.6146 17.184C95.6546 17.92 94.4866 18.288 93.1106 18.288ZM96.0866 10.368C95.9746 9.36 95.6466 8.592 95.1026 8.064C94.5746 7.52 93.8946 7.248 93.0626 7.248C92.2146 7.248 91.5186 7.52 90.9746 8.064C90.4306 8.592 90.0786 9.36 89.9186 10.368H96.0866ZM106.877 4.704C106.877 4.224 106.741 3.848 106.469 3.576C106.213 3.304 105.837 3.168 105.341 3.168H102.389V0.959999H105.485C106.797 0.959999 107.781 1.296 108.437 1.968C109.109 2.624 109.445 3.608 109.445 4.92V18H106.877V4.704ZM101.909 15.792H113.813V18H101.909V15.792ZM117.524 19.392H119.156C119.588 19.392 119.908 19.32 120.116 19.176C120.34 19.048 120.516 18.832 120.644 18.528L121.052 17.472H120.26L115.652 5.184H118.436L121.94 15L125.204 5.184H127.988L122.948 19.296C122.66 20.112 122.236 20.696 121.676 21.048C121.132 21.416 120.388 21.6 119.444 21.6H117.524V19.392ZM131.123 18H129.731V14.736H132.995V17.64L131.411 21.768H129.947L131.123 18Z" fill="#2C2C2C"/>
</svg>
