<svg width="178" height="32" viewBox="0 0 178 32" fill="none" xmlns="http://www.w3.org/2000/svg">
<g clip-path="url(#clip0_1720_2205)">
<path d="M11.5525 15.6428C10.9536 15.4485 10.3469 15.2517 9.83808 14.6894C6.41177 10.9032 19.163 5.52332 19.163 5.52332L15.0551 3.15144C15.0551 3.15144 7.54207 8.17565 4.13512 12.7023C2.12444 15.3738 -0.14581 20.1171 -0.14581 20.1171L8.4669 25.0899C8.4669 25.0899 15.6181 19.6984 13.3132 16.6958C12.8208 16.0542 12.1911 15.85 11.5525 15.6428Z" fill="#FEFEFE"/>
<path d="M19.2205 16.7848C19.8194 16.9791 20.4261 17.1759 20.935 17.7382C24.3613 21.5244 11.61 26.9043 11.61 26.9043L15.9531 29.4117C15.9531 29.4117 23.4662 24.3875 26.8731 19.8608C28.8838 17.1893 31.1541 12.4461 31.1541 12.4461L22.3061 7.33772C22.3061 7.33772 15.1549 12.7292 17.4598 15.7318C17.9522 16.3734 18.5819 16.5776 19.2205 16.7848Z" fill="#FEFEFE"/>
</g>
<path d="M46.16 23.32C45.1333 23.32 44.2333 23.1133 43.46 22.7C42.6867 22.2867 42.0733 21.7067 41.62 20.96C41.18 20.2133 40.92 19.3533 40.84 18.38L43.08 18.22C43.1733 18.8733 43.3533 19.4267 43.62 19.88C43.9 20.3333 44.2533 20.68 44.68 20.92C45.12 21.16 45.6267 21.28 46.2 21.28C46.7733 21.28 47.26 21.2067 47.66 21.06C48.06 20.9 48.36 20.6733 48.56 20.38C48.7733 20.0733 48.88 19.7267 48.88 19.34C48.88 18.9 48.78 18.5333 48.58 18.24C48.38 17.9333 48.0267 17.6533 47.52 17.4C47.0133 17.1467 46.2933 16.9 45.36 16.66C44.36 16.4067 43.5533 16.1067 42.94 15.76C42.34 15.4133 41.8867 14.9867 41.58 14.48C41.2867 13.9733 41.14 13.3533 41.14 12.62C41.14 11.8067 41.3333 11.0867 41.72 10.46C42.12 9.83333 42.6867 9.34667 43.42 9C44.1533 8.65333 45.0067 8.48 45.98 8.48C46.9133 8.48 47.7333 8.67333 48.44 9.06C49.16 9.44667 49.7333 9.98667 50.16 10.68C50.5867 11.3733 50.8533 12.1733 50.96 13.08L48.7 13.2C48.62 12.6667 48.4667 12.2 48.24 11.8C48.0133 11.4 47.7067 11.0867 47.32 10.86C46.9333 10.6333 46.4733 10.52 45.94 10.52C45.1667 10.52 44.5533 10.7067 44.1 11.08C43.6467 11.44 43.42 11.92 43.42 12.52C43.42 12.9333 43.5133 13.2733 43.7 13.54C43.8867 13.7933 44.1933 14.02 44.62 14.22C45.0467 14.42 45.66 14.62 46.46 14.82C47.6067 15.1133 48.52 15.46 49.2 15.86C49.88 16.26 50.3733 16.7467 50.68 17.32C51 17.88 51.16 18.5733 51.16 19.4C51.16 20.16 50.9467 20.84 50.52 21.44C50.1067 22.0267 49.52 22.4867 48.76 22.82C48.0133 23.1533 47.1467 23.32 46.16 23.32ZM57.6122 12.32H59.7722V23H57.6122V12.32ZM53.4322 21.16H63.3522V23H53.4322V21.16ZM53.6322 12.32H59.5322V14.16H53.6322V12.32ZM57.4922 8.74H59.7322V10.86H57.4922V8.74ZM65.8444 12.32H67.7844L67.8644 15.18L67.6044 15.04C67.791 14.0533 68.1844 13.3133 68.7844 12.82C69.3977 12.3267 70.1377 12.08 71.0044 12.08C72.1244 12.08 72.9777 12.4467 73.5644 13.18C74.151 13.9133 74.4444 14.8867 74.4444 16.1V23H72.3044V16.68C72.3044 15.7467 72.151 15.0533 71.8444 14.6C71.551 14.1467 71.0577 13.92 70.3644 13.92C69.6577 13.92 69.0844 14.1733 68.6444 14.68C68.2044 15.1733 67.9844 15.8667 67.9844 16.76V23H65.8444V12.32ZM82.1966 23.24C81.2099 23.24 80.3366 23.0133 79.5766 22.56C78.8299 22.1067 78.2499 21.46 77.8366 20.62C77.4232 19.7667 77.2166 18.78 77.2166 17.66C77.2166 16.54 77.4232 15.56 77.8366 14.72C78.2499 13.8667 78.8299 13.2133 79.5766 12.76C80.3366 12.3067 81.2099 12.08 82.1966 12.08C83.0099 12.08 83.7432 12.24 84.3966 12.56C85.0499 12.88 85.5899 13.34 86.0166 13.94C86.4432 14.5267 86.7232 15.2267 86.8566 16.04L84.6166 16.18C84.4566 15.5 84.1632 14.9733 83.7366 14.6C83.3232 14.2267 82.8099 14.04 82.1966 14.04C81.3432 14.04 80.6766 14.3667 80.1966 15.02C79.7166 15.66 79.4766 16.54 79.4766 17.66C79.4766 18.78 79.7166 19.6667 80.1966 20.32C80.6766 20.96 81.3432 21.28 82.1966 21.28C82.8366 21.28 83.3699 21.08 83.7966 20.68C84.2232 20.28 84.5099 19.72 84.6566 19L86.8966 19.14C86.6966 20.38 86.1699 21.3733 85.3166 22.12C84.4766 22.8667 83.4366 23.24 82.1966 23.24ZM94.0688 23.24C93.0821 23.24 92.2154 23.0133 91.4688 22.56C90.7221 22.1067 90.1421 21.46 89.7288 20.62C89.3154 19.7667 89.1088 18.78 89.1088 17.66C89.1088 16.54 89.3154 15.56 89.7288 14.72C90.1421 13.8667 90.7154 13.2133 91.4488 12.76C92.1954 12.3067 93.0554 12.08 94.0288 12.08C94.9488 12.08 95.7754 12.3 96.5088 12.74C97.2554 13.1667 97.8354 13.8067 98.2487 14.66C98.6754 15.5133 98.8888 16.5267 98.8888 17.7V18.22H91.3688C91.4488 19.22 91.7221 19.98 92.1888 20.5C92.6688 21.02 93.2954 21.28 94.0688 21.28C94.6688 21.28 95.1621 21.14 95.5488 20.86C95.9488 20.5667 96.2421 20.16 96.4288 19.64L98.6888 19.84C98.3688 20.8667 97.8021 21.6933 96.9888 22.32C96.1888 22.9333 95.2154 23.24 94.0688 23.24ZM96.5488 16.64C96.4554 15.8 96.1821 15.16 95.7288 14.72C95.2888 14.2667 94.7221 14.04 94.0288 14.04C93.3221 14.04 92.7421 14.2667 92.2888 14.72C91.8354 15.16 91.5421 15.8 91.4088 16.64H96.5488ZM104.321 12.32H105.861L106.041 15H105.881C106.001 14.1067 106.288 13.44 106.741 13C107.194 12.5467 107.808 12.32 108.581 12.32H110.921V14.22H108.741C108.234 14.22 107.808 14.3133 107.461 14.5C107.128 14.6867 106.874 14.9667 106.701 15.34C106.541 15.7 106.461 16.1467 106.461 16.68V23H104.321V12.32ZM101.681 21.16H109.721V23H101.681V21.16ZM101.681 12.32H105.441V14.16H101.681V12.32ZM118.053 23.24C117.066 23.24 116.2 23.0133 115.453 22.56C114.706 22.1067 114.126 21.46 113.713 20.62C113.3 19.7667 113.093 18.78 113.093 17.66C113.093 16.54 113.3 15.56 113.713 14.72C114.126 13.8667 114.7 13.2133 115.433 12.76C116.18 12.3067 117.04 12.08 118.013 12.08C118.933 12.08 119.76 12.3 120.493 12.74C121.24 13.1667 121.82 13.8067 122.233 14.66C122.66 15.5133 122.873 16.5267 122.873 17.7V18.22H115.353C115.433 19.22 115.706 19.98 116.173 20.5C116.653 21.02 117.28 21.28 118.053 21.28C118.653 21.28 119.146 21.14 119.533 20.86C119.933 20.5667 120.226 20.16 120.413 19.64L122.673 19.84C122.353 20.8667 121.786 21.6933 120.973 22.32C120.173 22.9333 119.2 23.24 118.053 23.24ZM120.533 16.64C120.44 15.8 120.166 15.16 119.713 14.72C119.273 14.2667 118.706 14.04 118.013 14.04C117.306 14.04 116.726 14.2667 116.273 14.72C115.82 15.16 115.526 15.8 115.393 16.64H120.533ZM129.525 11.92C129.525 11.52 129.412 11.2067 129.185 10.98C128.972 10.7533 128.659 10.64 128.245 10.64H125.785V8.8H128.365C129.459 8.8 130.279 9.08 130.825 9.64C131.385 10.1867 131.665 11.0067 131.665 12.1V23H129.525V11.92ZM125.385 21.16H135.305V23H125.385V21.16ZM138.398 24.16H139.758C140.118 24.16 140.384 24.1 140.558 23.98C140.744 23.8733 140.891 23.6933 140.998 23.44L141.338 22.56H140.678L136.838 12.32H139.158L142.078 20.5L144.798 12.32H147.118L142.918 24.08C142.678 24.76 142.324 25.2467 141.858 25.54C141.404 25.8467 140.784 26 139.998 26H138.398V24.16ZM149.73 23H148.57V20.28H151.29V22.7L149.97 26.14H148.75L149.73 23Z" fill="#FEFEFE"/>
<defs>
<clipPath id="clip0_1720_2205">
<rect width="32" height="32" fill="white"/>
</clipPath>
</defs>
</svg>