<svg xmlns="http://www.w3.org/2000/svg" width="22" height="20" viewBox="0 0 22 20" fill="none">
  <path d="M2.44936 3.26408L3.44233 3.77002L2.44936 3.26408ZM2.94107 18.4135L2.15304 17.6255H2.15304L2.94107 18.4135ZM18.0905 14.4475L18.5964 15.4404L18.0905 14.4475ZM19.5516 12.9864L20.5445 13.4923V13.4923L19.5516 12.9864ZM19.5516 3.26408L20.5445 2.75814V2.75813L19.5516 3.26408ZM18.0905 1.803L17.5845 2.79597L18.0905 1.803ZM3.91044 1.803L4.41639 2.79597L3.91044 1.803ZM6.2163 15.1383L5.42828 14.3502L6.2163 15.1383ZM3.1994 6.7879C3.1994 5.8333 3.20027 5.18437 3.24125 4.68277C3.28117 4.19418 3.35352 3.94432 3.44233 3.77002L1.45639 2.75814C1.1808 3.29901 1.07095 3.87485 1.01977 4.50127C0.969656 5.11468 0.970523 5.87008 0.970523 6.7879H3.1994ZM3.1994 9.23967V6.7879H0.970523V9.23967H3.1994ZM0.970523 9.23967V14.8119H3.1994V9.23967H0.970523ZM0.970523 14.8119V18.0589H3.1994V14.8119H0.970523ZM0.970523 18.0589C0.970523 19.4985 2.71112 20.2195 3.7291 19.2015L2.15304 17.6255C2.53917 17.2393 3.1994 17.5128 3.1994 18.0589H0.970523ZM3.7291 19.2015L7.00433 15.9263L5.42828 14.3502L2.15304 17.6255L3.7291 19.2015ZM14.5667 13.6974H7.00433V15.9263H14.5667V13.6974ZM17.5845 13.4545C17.4102 13.5433 17.1604 13.6157 16.6718 13.6556C16.1702 13.6966 15.5213 13.6974 14.5667 13.6974V15.9263C15.4845 15.9263 16.2399 15.9272 16.8533 15.877C17.4797 15.8259 18.0556 15.716 18.5964 15.4404L17.5845 13.4545ZM18.5586 12.4804C18.3449 12.8998 18.0039 13.2408 17.5845 13.4545L18.5964 15.4404C19.4352 15.0131 20.1172 14.3311 20.5445 13.4923L18.5586 12.4804ZM18.8015 9.46255C18.8015 10.4172 18.8007 11.0661 18.7597 11.5677C18.7198 12.0563 18.6474 12.3061 18.5586 12.4804L20.5445 13.4923C20.8201 12.9514 20.93 12.3756 20.9812 11.7492C21.0313 11.1358 21.0304 10.3804 21.0304 9.46255H18.8015ZM18.8015 6.7879V9.46255H21.0304V6.7879H18.8015ZM18.5586 3.77002C18.6474 3.94432 18.7198 4.19418 18.7597 4.68277C18.8007 5.18437 18.8015 5.8333 18.8015 6.7879H21.0304C21.0304 5.87008 21.0313 5.11468 20.9812 4.50127C20.93 3.87485 20.8201 3.29901 20.5445 2.75814L18.5586 3.77002ZM17.5845 2.79597C18.0039 3.00966 18.3449 3.35063 18.5586 3.77003L20.5445 2.75813C20.1172 1.91936 19.4352 1.23741 18.5964 0.810026L17.5845 2.79597ZM14.5667 2.55304C15.5213 2.55304 16.1702 2.5539 16.6718 2.59489C17.1604 2.6348 17.4102 2.70716 17.5845 2.79597L18.5964 0.810026C18.0556 0.534436 17.4797 0.424592 16.8533 0.373412C16.2399 0.323294 15.4845 0.32416 14.5667 0.32416V2.55304ZM7.43427 2.55304H14.5667V0.32416H7.43427V2.55304ZM4.41639 2.79597C4.59068 2.70716 4.84055 2.6348 5.32913 2.59489C5.83073 2.5539 6.47966 2.55304 7.43427 2.55304V0.32416C6.51644 0.32416 5.76104 0.323294 5.14763 0.373412C4.52121 0.424592 3.94537 0.534436 3.4045 0.810026L4.41639 2.79597ZM3.44233 3.77002C3.65602 3.35063 3.997 3.00966 4.41639 2.79597L3.4045 0.810026C2.56572 1.23741 1.88377 1.91936 1.45639 2.75814L3.44233 3.77002ZM7.00433 15.9263H7.00433V13.6974C6.41319 13.6974 5.84627 13.9322 5.42828 14.3502L7.00433 15.9263Z" fill="#FEFEFE"/>
  <path d="M6.54297 5.89636L15.4585 5.89636" stroke="#FEFEFE" stroke-width="2.22888" stroke-linecap="round" stroke-linejoin="round"/>
  <path d="M6.54297 10.3541L12.1152 10.3541" stroke="#FEFEFE" stroke-width="2.22888" stroke-linecap="round" stroke-linejoin="round"/>
</svg>