<svg width="40" height="40" viewBox="0 0 40 40" fill="none" xmlns="http://www.w3.org/2000/svg">
<g id="&#234;&#189;&#131; &#235;&#180;&#137;&#237;&#151;&#140;">
<path d="M0.5 8C0.5 3.85786 3.85786 0.5 8 0.5H32C36.1421 0.5 39.5 3.85786 39.5 8V32C39.5 36.1421 36.1421 39.5 32 39.5H8C3.85786 39.5 0.5 36.1421 0.5 32V8Z" fill="#FEFEFE"/>
<path d="M0.5 8C0.5 3.85786 3.85786 0.5 8 0.5H32C36.1421 0.5 39.5 3.85786 39.5 8V32C39.5 36.1421 36.1421 39.5 32 39.5H8C3.85786 39.5 0.5 36.1421 0.5 32V8Z" stroke="#C6C6C6"/>
<path id="Subtract" fill-rule="evenodd" clip-rule="evenodd" d="M25.3808 5.58584C28.0041 7.10039 28.5494 11.0911 26.6491 14.5877C27.2797 14.1718 27.9859 13.8183 28.7538 13.548C32.6191 12.1875 36.5854 13.4507 37.6127 16.3694C38.6401 19.2881 36.3394 22.7571 32.4741 24.1176C31.8983 24.3202 31.3204 24.4647 30.7502 24.5541C33.1487 27.3953 33.5073 31.1102 31.4699 33.1476C29.282 35.3355 24.9274 37.4989 22.0299 34.6013C20.9792 33.5507 20.2643 31.9788 19.8843 30.2977C17.6849 33.6384 11.5734 34.5544 8.95914 33.0451C6.27947 31.498 5.58379 28.4732 7.63267 24.9244C8.28064 23.8021 9.37767 22.8239 10.6596 22.0599C10.0703 22.0161 9.46801 21.9153 8.86343 21.7533C4.90529 20.6928 2.34581 17.4101 3.14665 14.4213C3.94749 11.4325 7.80541 9.86935 11.7636 10.9299C13.2836 11.3372 14.5973 12.0721 15.5937 12.9923C15.7032 11.75 16.1061 10.4449 16.819 9.21018C18.8679 5.66141 22.7011 4.03875 25.3808 5.58584ZM18.241 23.5653C19.9292 25.2535 22.3762 25.5436 24.0644 23.8554C25.7526 22.1672 25.4625 19.5473 23.7743 17.8591C22.0861 16.1709 19.6391 16.0537 17.9509 17.7419C16.2627 19.4301 16.5528 21.8771 18.241 23.5653Z" fill="#C5AAFF"/>
</g>
</svg>
